<svg xmlns="http://www.w3.org/2000/svg" viewBox="0 0 305 178" fill="currentColor" aria-hidden="true">
  <path
    d="M0,0 L10,1 L24,8 L34,11 L44,17 L48,21 L56,25 L61,31 L69,43 L78,51 L83,66 L87,70 L88,72 L88,87 L90,91 L95,93 L103,94 L103,97 L99,99 L89,99 L82,95 L78,88 L77,84 L70,91 L61,94 L54,99 L52,99 L51,104 L50,105 L43,104 L39,100 L39,97 L37,97 L35,87 L36,83 L38,83 L39,69 L41,66 L38,68 L37,77 L30,80 L26,87 L34,95 L35,100 L31,108 L26,111 L18,115 L8,123 L2,123 L-3,127 L-8,129 L-17,129 L-18,125 L-11,111 L-8,110 L0,112 L-1,106 L3,104 L15,101 L17,99 L8,97 L2,93 L-3,90 L-11,87 L-13,85 L-14,78 L-11,67 L-15,77 L-15,86 L-10,90 L1,94 L9,100 L9,102 L-2,105 L-10,104 L-12,103 L-13,108 L-24,115 L-35,124 L-41,125 L-52,122 L-51,118 L-46,109 L-41,108 L-37,110 L-30,104 L-28,99 L-31,99 L-48,103 L-50,104 L-50,107 L-52,108 L-63,108 L-68,106 L-66,101 L-66,100 L-73,113 L-77,119 L-67,127 L-62,132 L-57,146 L-59,148 L-75,148 L-77,146 L-77,142 L-83,139 L-83,134 L-87,132 L-106,128 L-108,127 L-107,113 L-118,117 L-135,117 L-148,116 L-156,120 L-163,127 L-160,140 L-160,147 L-161,148 L-174,148 L-180,145 L-181,141 L-179,132 L-180,124 L-168,113 L-161,105 L-156,100 L-142,100 L-146,105 L-140,103 L-129,96 L-123,91 L-112,71 L-108,66 L-100,63 L-83,60 L-93,59 L-93,57 L-64,48 L-73,50 L-75,51 L-86,51 L-86,49 L-70,44 L-54,36 L-40,29 L-23,25 L-19,23 L-26,23 L-26,21 L-16,17 L-6,15 L0,10 L6,8 L-2,7 L-11,10 L-31,23 L-35,25 L-39,24 L-25,14 L-10,3 L-6,1 Z M-16,21 Z M0,24 L-7,28 L-12,32 L-11,34 L-3,28 L7,26 L4,24 Z M9,25 Z M-13,34 Z M-14,35 Z M-15,36 Z M64,49 Z M63,52 Z M29,59 Z M52,61 Z M49,62 Z M46,63 Z M27,64 Z M43,64 Z M26,65 Z M75,67 L73,69 L78,71 L81,74 L80,69 L79,67 Z M23,68 Z M22,69 Z M72,69 Z M21,70 Z M19,71 Z M17,72 Z M15,73 Z M14,74 L15,76 Z M15,76 Z M81,76 Z M17,77 Z M18,78 Z M71,78 Z M19,79 Z M72,79 Z M20,80 Z M59,80 L60,84 Z M21,81 Z M22,82 Z M23,83 Z M59,86 Z M41,90 L42,93 Z M40,94 L41,96 Z M-63,95 Z M-64,96 Z M-111,97 Z M-110,98 L-108,102 L-104,106 L-102,118 L-101,118 L-101,107 L-105,101 Z M-23,98 Z M-156,105 L-163,111 L-162,113 L-155,107 L-152,105 Z M-148,106 Z M-164,113 Z M-165,114 Z M-166,115 Z M-103,118 L-102,120 Z M-172,121 Z M-173,122 Z M-174,123 Z M-175,124 Z M-176,125 Z M-177,127 Z M-86,128 Z M-84,129 Z "
    transform="translate(194,14)"
  />
  <path
    d="M0,0 L14,0 L25,4 L34,10 L39,15 L46,21 L55,20 L65,16 L70,16 L70,18 L59,25 L50,31 L45,41 L40,51 L34,58 L28,61 L28,58 L33,53 L41,32 L39,28 L27,14 L16,8 L12,7 L2,7 L-2,9 L-3,15 L2,21 L12,28 L15,31 L15,38 L10,43 L2,47 L-2,50 L-13,50 L-16,50 L-20,55 L-22,55 L-21,49 L-18,44 L-14,42 L1,41 L9,37 L8,32 L-2,25 L-9,19 L-11,12 L-8,5 L-3,1 Z "
    transform="translate(29,50)"
  />
</svg>
