<?xml version="1.0" encoding="UTF-8" standalone="no"?>
<svg
   width="88.473839"
   height="54.185852"
   version="1.2"
   viewBox="0 0 66.355339 40.639463"
   id="svg17"
   sodipodi:docname="nodejs.svg"
   inkscape:version="1.4.2 (ebf0e940d0, 2025-05-08)"
   xmlns:inkscape="http://www.inkscape.org/namespaces/inkscape"
   xmlns:sodipodi="http://sodipodi.sourceforge.net/DTD/sodipodi-0.dtd"
   xmlns="http://www.w3.org/2000/svg"
   xmlns:svg="http://www.w3.org/2000/svg">
  <sodipodi:namedview
     id="namedview17"
     pagecolor="#ffffff"
     bordercolor="#000000"
     borderopacity="0.25"
     inkscape:showpageshadow="2"
     inkscape:pageopacity="0.0"
     inkscape:pagecheckerboard="0"
     inkscape:deskcolor="#d1d1d1"
     inkscape:zoom="1.4842608"
     inkscape:cx="-273.53683"
     inkscape:cy="440.2865"
     inkscape:window-width="1920"
     inkscape:window-height="1052"
     inkscape:window-x="0"
     inkscape:window-y="0"
     inkscape:window-maximized="1"
     inkscape:current-layer="svg17" />
  <defs
     id="defs11">
    <clipPath
       id="a">
      <path
         d="m 239.03,226.605 -42.13,24.317 c -1.578,0.91 -2.546,2.59 -2.546,4.406 v 48.668 c 0,1.817 0.968,3.496 2.546,4.406 l 42.133,24.336 c 1.575,0.907 3.517,0.907 5.09,0 l 42.126,-24.336 c 1.57,-0.91 2.54,-2.59 2.54,-4.406 v -48.668 c 0,-1.816 -0.97,-3.496 -2.55,-4.406 l -42.12,-24.317 c -0.79,-0.453 -1.67,-0.68 -2.55,-0.68 -0.88,0 -1.76,0.227 -2.55,0.68"
         id="path1" />
    </clipPath>
    <linearGradient
       id="b"
       x1="-0.34799999"
       x2="1.251"
       gradientTransform="matrix(-38.064915,77.652126,-77.652126,-38.064915,258.72325,244.62943)"
       gradientUnits="userSpaceOnUse">
      <stop
         offset=".3"
         stop-color="#3E863D"
         id="stop1" />
      <stop
         offset=".5"
         stop-color="#55934F"
         id="stop2" />
      <stop
         offset=".8"
         stop-color="#5AAD45"
         id="stop3" />
    </linearGradient>
    <clipPath
       id="c">
      <path
         d="m 195.398,307.086 c 0.403,0.523 0.907,0.976 1.5,1.316 l 36.14,20.875 6.02,3.46 c 0.9,0.52 1.926,0.74 2.934,0.665 0.336,-0.027 0.672,-0.09 1,-0.183 l 44.434,-81.36 c -0.34,-0.37 -0.738,-0.68 -1.184,-0.94 l -27.586,-15.93 -14.582,-8.39 c -0.414,-0.24 -0.863,-0.41 -1.32,-0.53 z m 0,0"
         id="path3" />
    </clipPath>
    <linearGradient
       id="d"
       x1="-0.456"
       x2="0.58200002"
       gradientTransform="matrix(106.8057,-78.916731,78.916731,106.8057,235.18824,285.39477)"
       gradientUnits="userSpaceOnUse">
      <stop
         offset=".57"
         stop-color="#3E863D"
         id="stop4" />
      <stop
         offset=".72"
         stop-color="#619857"
         id="stop5" />
      <stop
         offset="1"
         stop-color="#76AC64"
         id="stop6" />
    </linearGradient>
    <clipPath
       id="e">
      <path
         d="m 241.066,225.953 c -0.707,0.07 -1.398,0.29 -2.035,0.652 l -42.01,24.247 45.3,82.51 c 0.63,-0.09 1.25,-0.3 1.81,-0.624 l 42.13,-24.336 c 1.3,-0.754 2.19,-2.03 2.46,-3.476 l -46.18,-78.89 c -0.34,-0.067 -0.68,-0.102 -1.03,-0.102 -0.14,0 -0.28,0.007 -0.42,0.02"
         id="path6" />
    </clipPath>
    <linearGradient
       id="f"
       x1="0.043000001"
       x2="0.98400003"
       gradientTransform="matrix(97.417,0,0,97.417,192.862,279.652)"
       gradientUnits="userSpaceOnUse">
      <stop
         offset=".16"
         stop-color="#6BBF47"
         id="stop7" />
      <stop
         offset=".38"
         stop-color="#79B461"
         id="stop8" />
      <stop
         offset=".47"
         stop-color="#75AC64"
         id="stop9" />
      <stop
         offset=".7"
         stop-color="#659E5A"
         id="stop10" />
      <stop
         offset=".9"
         stop-color="#3E863D"
         id="stop11" />
    </linearGradient>
  </defs>
  <path
     fill="#689f63"
     d="m 32.796646,40.639464 c -0.219,0 -0.4365,-0.0575 -0.6285,-0.168 l -2.00055,-1.1844 c -0.2988,-0.1671 -0.153,-0.2262 -0.0545,-0.26025 0.3984,-0.1395 0.47925,-0.171 0.9045,-0.4125 0.0447,-0.0255 0.1032,-0.0165 0.14895,0.0105 l 1.5369,0.912 c 0.0555,0.03 0.13425,0.03 0.1857,0 l 5.9925,-3.459 c 0.0555,-0.0315 0.0915,-0.096 0.0915,-0.162 v -6.915 c 0,-0.069 -0.036,-0.1305 -0.0927,-0.165 l -5.9901,-3.456 c -0.0555,-0.033 -0.129,-0.033 -0.1845,0 l -5.9889,3.456 c -0.0581,0.033 -0.095,0.0975 -0.095,0.1635 v 6.915 c 0,0.066 0.036,0.129 0.093,0.1605 l 1.641,0.948 c 0.891,0.4455 1.4355,-0.0795 1.4355,-0.6075 v -6.825 c 0,-0.0975 0.0765,-0.1725 0.174,-0.1725 h 0.759 c 0.0945,0 0.1725,0.075 0.1725,0.1725 v 6.828 c 0,1.188 -0.648,1.8705 -1.7745,1.8705 -0.3465,0 -0.6195,0 -1.3815,-0.375 l -1.572,-0.906 c -0.3885,-0.225 -0.6285,-0.645 -0.6285,-1.0935 v -6.915 c 0,-0.45 0.24,-0.87 0.6285,-1.092 l 5.9985,-3.4605 c 0.3795,-0.2145 0.8835,-0.2145 1.26,0 l 5.991,3.462 c 0.387,0.2235 0.6285,0.642 0.6285,1.092 v 6.915 c 0,0.4485 -0.2415,0.867 -0.6285,1.092 l -5.991,3.4605 c -0.192,0.111 -0.4095,0.168 -0.6315,0.168"
     id="path11"
     style="stroke-width:0.15" />
  <path
     fill="#689f63"
     d="m 34.647646,35.874564 c -2.622,0 -3.17175,-1.2036 -3.17175,-2.2131 0,-0.096 0.0774,-0.1725 0.17355,-0.1725 h 0.774 c 0.0855,0 0.1575,0.0623 0.171,0.1467 0.117,0.7887 0.465,1.1865 2.0505,1.1865 1.263,0 1.8,-0.2853 1.8,-0.95505 0,-0.3855 -0.153,-0.672 -2.115,-0.864 -1.641,-0.162 -2.655,-0.5235 -2.655,-1.836 0,-1.209 1.02,-1.929 2.7285,-1.929 1.9185,0 2.8695,0.666 2.9895,2.097 0.004,0.0495 -0.0135,0.0975 -0.0465,0.1335 -0.033,0.0345 -0.0795,0.0555 -0.1275,0.0555 h -0.7785 c -0.081,0 -0.1515,-0.057 -0.168,-0.135 -0.1875,-0.8295 -0.6405,-1.095 -1.872,-1.095 -1.3785,0 -1.539,0.48 -1.539,0.84 0,0.4365 0.189,0.564 2.049,0.81 1.842,0.2445 2.7165,0.5895 2.7165,1.884 0,1.305 -1.089,2.0535 -2.988,2.0535 m 7.299,-7.3335 h 0.201 c 0.165,0 0.1965,-0.1155 0.1965,-0.183 0,-0.177 -0.1215,-0.177 -0.189,-0.177 h -0.207 z m -0.2445,-0.567 h 0.4455 c 0.153,0 0.453,0 0.453,0.342 0,0.2385 -0.153,0.288 -0.2445,0.318 0.1785,0.012 0.1905,0.129 0.2145,0.294 0.012,0.1035 0.0315,0.282 0.0675,0.342 h -0.2745 c -0.007,-0.06 -0.0495,-0.39 -0.0495,-0.408 -0.018,-0.0735 -0.0435,-0.1095 -0.135,-0.1095 h -0.2265 v 0.519 h -0.2505 z m -0.5355,0.645 c 0,0.537 0.4335,0.972 0.966,0.972 0.537,0 0.9705,-0.444 0.9705,-0.972 0,-0.5385 -0.4395,-0.966 -0.972,-0.966 -0.525,0 -0.966,0.4215 -0.966,0.9645 m 2.124,0.005 c 0,0.636 -0.5205,1.155 -1.155,1.155 -0.63,0 -1.155,-0.513 -1.155,-1.155 0,-0.654 0.537,-1.155 1.155,-1.155 0.6225,0 1.1535,0.5025 1.1535,1.155"
     id="path12"
     style="stroke-width:0.15" />
  <path
     fill="#333"
     fill-rule="evenodd"
     d="m 14.239996,13.582462 c 0,-0.276 -0.1455,-0.5295 -0.3837,-0.66675 L 7.5028957,9.2602117 c -0.10725,-0.063 -0.2274,-0.096 -0.3492,-0.1005 h -0.0657 c -0.1218,0.0045 -0.24195,0.0375 -0.351,0.1005 L 0.38389574,12.915712 c -0.2367,0.138 -0.38429999633,0.3915 -0.38429999633,0.6675 L 0.01359574,23.429214 c 0,0.1365 0.0705,0.264 0.1905,0.3315 0.117,0.072 0.264,0.072 0.381,0 l 3.77699996,-2.163 c 0.2385,-0.1419 0.384,-0.3927 0.384,-0.666 v -4.599752 c 0,-0.2745 0.1455,-0.528 0.38325,-0.6645 l 1.608,-0.9261 c 0.1194,-0.069 0.2505,-0.1032 0.384,-0.1032 0.1314,0 0.2655,0.0339 0.3816,0.10305 l 1.60725,0.9258 c 0.2379,0.1365 0.384,0.39 0.384,0.6645 v 4.599452 c 0,0.273 0.14745,0.525 0.38475,0.666 l 3.7746003,2.1615 c 0.1185,0.0705 0.26595,0.0705 0.384,0 0.1164,-0.0675 0.1902,-0.195 0.1902,-0.3315 z m 29.9802,5.1264 c 0,0.06855 -0.0365,0.132002 -0.096,0.165902 l -2.1822,1.2579 c -0.0592,0.034 -0.13245,0.034 -0.19155,0 l -2.1825,-1.2579 c -0.06,-0.0341 -0.096,-0.0975 -0.096,-0.165902 v -2.5194 c 0,-0.0687 0.036,-0.132 0.0945,-0.1665 l 2.181,-1.26 c 0.06,-0.0345 0.1335,-0.0345 0.1935,0 l 2.1825,1.26 c 0.06,0.0345 0.096,0.0978 0.096,0.1665 z m 0.5895,-18.66030031 c -0.1191,-0.0663 -0.264,-0.0645 -0.3816,0.0041 -0.117,0.069 -0.1893,0.195 -0.1893,0.3315 V 10.134162 c 0,0.096 -0.051,0.1845 -0.1341,0.2325 -0.0825,0.048 -0.18525,0.048 -0.2685,0 l -1.5915,-0.9166503 c -0.237,-0.1371 -0.5289,-0.1371 -0.7668,0 l -6.3555,3.6679503 c -0.23745,0.1365 -0.384,0.39 -0.384,0.663 v 7.338002 c 0,0.2745 0.14655,0.5265 0.384,0.6645 l 6.3555,3.6705 c 0.2373,0.1365 0.5295,0.1365 0.76755,0 l 6.3555,-3.672 c 0.237,-0.138 0.384,-0.39 0.384,-0.6645 V 2.8294217 c 0,-0.2784 -0.1515,-0.53445 -0.3945,-0.6705 z M 65.973646,16.123162 c 0.2361,-0.1371 0.38145,-0.3903 0.38145,-0.6633 v -1.7784 c 0,-0.2736 -0.1455,-0.52605 -0.38205,-0.66375 l -6.315,-3.6660003 c -0.2385,-0.138 -0.531,-0.138 -0.7695,0 l -6.354,3.6675003 c -0.2385,0.138 -0.384,0.39 -0.384,0.6645 v 7.335002 c 0,0.276 0.1485,0.531 0.387,0.6675 l 6.3135,3.5985 c 0.2325,0.1335 0.5175,0.135 0.753,0.005 l 3.819,-2.1225 c 0.12,-0.0675 0.1965,-0.195 0.1965,-0.333 0,-0.138 -0.0735,-0.267 -0.1935,-0.3345 l -6.393,-3.669 c -0.12,-0.0675 -0.1935,-0.195002 -0.1935,-0.331502 v -2.301 c 0,-0.1374 0.072,-0.264 0.192,-0.3324 l 1.989,-1.1475 c 0.1185,-0.069 0.264,-0.069 0.3825,0 l 1.9905,1.1475 c 0.1185,0.0675 0.192,0.195 0.192,0.3315 v 1.809 c 0,0.1365 0.0735,0.264 0.192,0.333 0.1185,0.0675 0.2655,0.0675 0.384,-0.0014 z m 0,0"
     id="path13"
     style="fill:#ececec;stroke-width:0.15" />
  <path
     fill="#689f63"
     fill-rule="evenodd"
     d="m 59.180296,15.779962 c 0.045,-0.02655 0.1014,-0.02655 0.147,0 l 1.2195,0.7035 c 0.0456,0.0264 0.0735,0.075 0.0735,0.1275 v 1.4085 c 0,0.0525 -0.0279,0.1011 -0.0735,0.1275 l -1.2195,0.703502 c -0.0456,0.0266 -0.102,0.0266 -0.147,0 l -1.21875,-0.703502 c -0.0465,-0.0264 -0.075,-0.075 -0.075,-0.1275 v -1.4085 c 0,-0.0525 0.027,-0.1011 0.0735,-0.1275 z m 0,0"
     id="path14"
     style="stroke-width:0.15" />
  <g
     clip-path="url(#a)"
     transform="matrix(0.15,0,0,0.15,-11.746304,-24.602438)"
     id="g15">
    <path
       fill="url(#b)"
       d="m 331.363,246.793 -118.715,-58.19 -60.87,124.174 118.712,58.193 z m 0,0"
       id="path15"
       style="fill:url(#b)" />
  </g>
  <g
     clip-path="url(#c)"
     transform="matrix(0.15,0,0,0.15,-11.746304,-24.602438)"
     id="g16">
    <path
       fill="url(#d)"
       d="m 144.07,264.004 83.825,113.453 110.86,-81.906 -83.83,-113.45 z m 0,0"
       id="path16"
       style="fill:url(#d)" />
  </g>
  <g
     clip-path="url(#e)"
     transform="matrix(0.15,0,0,0.15,-11.746304,-24.602438)"
     id="g17">
    <path
       fill="url(#f)"
       d="m 197.02,225.934 v 107.43 h 91.683 v -107.43 z m 0,0"
       id="path17"
       style="fill:url(#f)" />
  </g>
</svg>
