<svg xmlns="http://www.w3.org/2000/svg">
  <symbol id="typescript" viewBox="0 0 512 512" fill="#000000">
    <g strokeWidth="0"></g>
    <g strokeLinecap="round" strokeLinejoin="round"></g>
    <rect width="512" height="512" rx="15%" fill="#3178c6" />
    <path fill="#fff"
      d="M233 284h64v-41H118v41h64v183h51zm84 173c8.1 4.2 18 7.3 29 9.4s23 3.1 35 3.1c12 0 23-1.1 34-3.4 11-2.3 20-6.1 28-11 8.1-5.3 15-12 19-21s7.1-19 7.1-32c0-9.1-1.4-17-4.1-24s-6.6-13-12-18c-5.1-5.3-11-10-18-14s-15-8.2-24-12c-6.6-2.7-12-5.3-18-7.9-5.2-2.6-9.7-5.2-13-7.8-3.7-2.7-6.5-5.5-8.5-8.4-2-3-3-6.3-3-10 0-3.4.89-6.5 2.7-9.3s4.3-5.1 7.5-7.1c3.2-2 7.2-3.5 12-4.6c4.7-1.1 9.9-1.6 16-1.6c4.2 0 8.6.31 13 .94c4.6.63 9.3 1.6 14 2.9c4.7 1.3 9.3 2.9 14 4.9c4.4 2 8.5 4.3 12 6.9v-47c-7.6-2.9-16-5.1-25-6.5s-19-2.1-31-2.1c-12 0-23 1.3-34 3.8s-20 6.5-28 12c-8.1 5.4-14 12-19 21-4.7 8.4-7 18-7 30 0 15 4.3 28 13 38c8.6 11 22 19 39 27c6.9 2.8 13 5.6 19 8.3s11 5.5 15 8.4c4.3 2.9 7.7 6.1 10 9.5c2.5 3.4 3.8 7.4 3.8 12c0 3.2-.78 6.2-2.3 9s-3.9 5.2-7.1 7.2-7.1 3.6-12 4.8c-4.7 1.1-10 1.7-17 1.7c-11 0-22-1.9-32-5.7c-11-3.8-21-9.5-28.1-15.44z" />
  </symbol>

  <symbol id="nextjs" viewBox="0 0 256 256">
    <g strokeWidth="0"></g>
    <g strokeLinecap="round" strokeLinejoin="round"></g>
    <g>
      <g>
        <path
          d="M119.616813,0.0688905149 C119.066276,0.118932037 117.314565,0.294077364 115.738025,0.419181169 C79.3775171,3.69690087 45.3192571,23.3131775 23.7481916,53.4631946 C11.7364614,70.2271045 4.05395894,89.2428829 1.15112414,109.384595 C0.12512219,116.415429 0,118.492153 0,128.025062 C0,137.557972 0.12512219,139.634696 1.15112414,146.665529 C8.10791789,194.730411 42.3163245,235.11392 88.7116325,250.076335 C97.0197458,252.753556 105.778299,254.580072 115.738025,255.680985 C119.616813,256.106338 136.383187,256.106338 140.261975,255.680985 C157.453763,253.779407 172.017986,249.525878 186.382014,242.194795 C188.584164,241.068861 189.00958,240.768612 188.709286,240.518404 C188.509091,240.36828 179.124927,227.782837 167.86393,212.570214 L147.393939,184.922273 L121.743891,146.965779 C107.630108,126.098464 96.0187683,109.034305 95.9186706,109.034305 C95.8185728,109.009284 95.7184751,125.873277 95.6684262,146.465363 C95.5933529,182.52028 95.5683284,183.971484 95.1178886,184.82219 C94.4672532,186.048207 93.9667644,186.548623 92.915738,187.099079 C92.114956,187.499411 91.4142717,187.574474 87.6355816,187.574474 L83.3063539,187.574474 L82.1552297,186.848872 C81.4044966,186.373477 80.8539589,185.747958 80.4785924,185.022356 L79.9530792,183.896422 L80.0031281,133.729796 L80.0782014,83.5381493 L80.8539589,82.5623397 C81.25435,82.0369037 82.1051808,81.3613431 82.7057674,81.0360732 C83.7317693,80.535658 84.1321603,80.4856165 88.4613881,80.4856165 C93.5663734,80.4856165 94.4172043,80.6857826 95.7434995,82.1369867 C96.1188661,82.5373189 110.007429,103.454675 126.623656,128.650581 C143.239883,153.846488 165.962072,188.250034 177.122972,205.139048 L197.392766,235.839522 L198.418768,235.163961 C207.502639,229.259062 217.112023,220.852086 224.719453,212.09482 C240.910264,193.504394 251.345455,170.835585 254.848876,146.665529 C255.874878,139.634696 256,137.557972 256,128.025062 C256,118.492153 255.874878,116.415429 254.848876,109.384595 C247.892082,61.3197135 213.683675,20.9362052 167.288368,5.97379012 C159.105376,3.32158945 150.396872,1.49507389 140.637341,0.394160408 C138.234995,0.143952798 121.693842,-0.131275573 119.616813,0.0688905149 L119.616813,0.0688905149 Z M172.017986,77.4831252 C173.219159,78.0836234 174.195112,79.2345784 174.545455,80.435575 C174.74565,81.0861148 174.795699,94.9976579 174.74565,126.348671 L174.670577,171.336 L166.73783,159.17591 L158.780059,147.01582 L158.780059,114.313685 C158.780059,93.1711423 158.880156,81.2862808 159.030303,80.7108033 C159.430694,79.3096407 160.306549,78.2087272 161.507722,77.5581875 C162.533724,77.0327515 162.909091,76.98271 166.837928,76.98271 C170.541544,76.98271 171.19218,77.0327515 172.017986,77.4831252 Z"
          fill="currentColor"></path>
      </g>
    </g>
  </symbol>

  <symbol id="tailwind" viewBox="0 0 256 154">
    <defs>
      <linearGradient x1="0%" y1="32%" x2="100%" y2="67.5%" id="tailwind-grad">
        <stop stop-color="#2298BD" offset="0%"></stop>
        <stop stop-color="#0ED7B5" offset="100%"></stop>
      </linearGradient>
    </defs>
    <path
      d="M128,0 C93.86,0 72.53,17.06 64,51.2 C76.8,34.13 91.73,27.73 108.8,32 C118.53,34.43 125.49,41.49 133.2,49.31 C145.75,62.05 160.27,76.8 192,76.8 C226.13,76.8 247.46,59.73 256,25.6 C243.2,42.66 228.26,49.06 211.2,44.8 C201.46,42.36 194.5,35.3 186.79,27.48 C174.24,14.74 159.72,0 128,0 Z M64,76.8 C29.86,76.8 8.53,93.86 0,128 C12.8,110.93 27.73,104.53 44.8,108.8 C54.53,111.23 61.49,118.29 69.2,126.11 C81.75,138.85 96.27,153.6 128,153.6 C162.13,153.6 183.46,136.53 192,102.4 C179.2,119.46 164.26,125.86 147.2,121.6 C137.46,119.16 130.5,112.1 122.79,104.28 C110.24,91.54 95.72,76.8 64,76.8 Z"
      fill="url(#tailwind-grad)">
    </path>
  </symbol>

  <symbol id="git" viewBox="0 0 32 32" fill="none">
    <g strokeWidth="0"></g>
    <g strokeLinecap="round" strokeLinejoin="round"></g>
    <g>
      <path
        d="M2.58536 17.4132C1.80488 16.6327 1.80488 15.3673 2.58536 14.5868L14.5868 2.58536C15.3673 1.80488 16.6327 1.80488 17.4132 2.58536L29.4146 14.5868C30.1951 15.3673 30.1951 16.6327 29.4146 17.4132L17.4132 29.4146C16.6327 30.1951 15.3673 30.1951 14.5868 29.4146L2.58536 17.4132Z"
        fill="#EE513B"></path>
      <path
        d="M12.1489 5.06152L10.9336 6.27686L14.0725 9.41577C13.9455 9.68819 13.8746 9.99201 13.8746 10.3124C13.8746 11.222 14.4461 11.9981 15.2496 12.3012V19.9798C14.4461 20.2829 13.8746 21.059 13.8746 21.9686C13.8746 23.1422 14.826 24.0936 15.9996 24.0936C17.1732 24.0936 18.1246 23.1422 18.1246 21.9686C18.1246 21.144 17.6549 20.429 16.9684 20.0768V12.3117L19.9689 15.3122C19.8481 15.5791 19.7809 15.8754 19.7809 16.1874C19.7809 17.361 20.7323 18.3124 21.9059 18.3124C23.0795 18.3124 24.0309 17.361 24.0309 16.1874C24.0309 15.0138 23.0795 14.0624 21.9059 14.0624C21.6778 14.0624 21.4582 14.0983 21.2522 14.1648L18.0297 10.9423C18.0914 10.7433 18.1246 10.5317 18.1246 10.3124C18.1246 9.13878 17.1732 8.18738 15.9996 8.18738C15.7803 8.18738 15.5688 8.22061 15.3697 8.2823L12.1489 5.06152Z"
        fill="white"></path>
    </g>
  </symbol>

  <symbol id="node" viewBox="-16.5 0 289 289" fill="#000000">
    <g strokeWidth="0"></g>
    <g strokeLinecap="round" strokeLinejoin="round"></g>
    <g>
      <g>
        <path
          d="M127.999999,288.463771 C124.024844,288.463771 120.314699,287.403728 116.869564,285.548656 L81.6231884,264.612838 C76.32298,261.697724 78.9730854,260.637682 80.5631458,260.107661 C87.7184259,257.72257 89.0434775,257.192547 96.4637688,252.952381 C97.2587979,252.422361 98.3188405,252.687372 99.1138718,253.217392 L126.144927,269.383024 C127.20497,269.913045 128.530021,269.913045 129.325053,269.383024 L235.064182,208.165634 C236.124225,207.635611 236.654245,206.575571 236.654245,205.250519 L236.654245,83.0807467 C236.654245,81.7556929 236.124225,80.6956526 235.064182,80.1656324 L129.325053,19.2132506 C128.26501,18.6832305 126.939959,18.6832305 126.144927,19.2132506 L20.4057954,80.1656324 C19.3457551,80.6956526 18.8157349,82.0207041 18.8157349,83.0807467 L18.8157349,205.250519 C18.8157349,206.31056 19.3457551,207.635611 20.4057954,208.165634 L49.2919247,224.861286 C64.9275364,232.811595 74.7329196,223.536234 74.7329196,214.260871 L74.7329196,93.681159 C74.7329196,92.0910985 76.0579711,90.5010358 77.9130428,90.5010358 L91.4285716,90.5010358 C93.0186343,90.5010358 94.6086948,91.8260873 94.6086948,93.681159 L94.6086948,214.260871 C94.6086948,235.196689 83.2132512,247.387164 63.3374737,247.387164 C57.2422362,247.387164 52.4720502,247.387164 38.9565214,240.761906 L11.1304347,224.861286 C4.24016581,220.886129 5.68434189e-14,213.46584 5.68434189e-14,205.515528 L5.68434189e-14,83.3457557 C5.68434189e-14,75.3954465 4.24016581,67.9751552 11.1304347,64.0000006 L116.869564,2.78260752 C123.494824,-0.927535841 132.505176,-0.927535841 139.130436,2.78260752 L244.869565,64.0000006 C251.759834,67.9751552 256,75.3954465 256,83.3457557 L256,205.515528 C256,213.46584 251.759834,220.886129 244.869565,224.861286 L139.130436,286.078676 C135.685299,287.668739 131.710145,288.463771 127.999999,288.463771 L127.999999,288.463771 Z M160.596274,204.455488 C114.219461,204.455488 104.679089,183.254659 104.679089,165.233955 C104.679089,163.643893 106.004141,162.053832 107.859212,162.053832 L121.639752,162.053832 C123.229813,162.053832 124.554864,163.113872 124.554864,164.703935 C126.674947,178.749484 132.770187,185.639753 160.861283,185.639753 C183.122154,185.639753 192.662526,180.604556 192.662526,168.67909 C192.662526,161.788821 190.012423,156.753624 155.296065,153.308489 C126.409938,150.393375 108.389235,144.033126 108.389235,120.977226 C108.389235,99.5113875 126.409938,86.7908901 156.621119,86.7908901 C190.542443,86.7908901 207.238095,98.4513472 209.358178,123.89234 C209.358178,124.687371 209.093167,125.482403 208.563147,126.277434 C208.033127,126.807454 207.238095,127.337474 206.443064,127.337474 L192.662526,127.337474 C191.337475,127.337474 190.012423,126.277434 189.747412,124.952382 C186.567289,110.376813 178.351966,105.606625 156.621119,105.606625 C132.240165,105.606625 129.325053,114.086957 129.325053,120.447205 C129.325053,128.132506 132.770187,130.5176 165.631471,134.757766 C198.227744,138.997931 213.598344,145.093169 213.598344,167.884058 C213.333333,191.20497 194.252589,204.455488 160.596274,204.455488 L160.596274,204.455488 Z"
          fill="#539E43"></path>
      </g>
    </g>
  </symbol>

  <symbol id="bun" viewBox="0 0 128 128">
    <path
      d="M113.744 41.999a18.558 18.558 0 0 0-.8-.772c-.272-.246-.528-.524-.8-.771s-.528-.525-.8-.771c-.272-.247-.528-.525-.8-.772s-.528-.524-.8-.771-.528-.525-.8-.772-.528-.524-.8-.771c7.936 7.52 12.483 17.752 12.656 28.481 0 25.565-26.912 46.363-60 46.363-18.528 0-35.104-6.526-46.128-16.756l.8.772.8.771.8.772.8.771.8.772.8.771.8.771c11.008 10.662 27.952 17.527 46.928 17.527 33.088 0 60-20.797 60-46.285 0-10.893-4.864-21.215-13.456-29.33z" />
    <path fill="#fbf0df"
      d="M116.8 65.08c0 23.467-25.072 42.49-56 42.49s-56-19.023-56-42.49c0-14.55 9.6-27.401 24.352-35.023C43.904 22.435 53.088 14.628 60.8 14.628S75.104 21 92.448 30.058C107.2 37.677 116.8 50.53 116.8 65.08Z" />
    <path fill="#f6dece"
      d="M116.8 65.08a32.314 32.314 0 0 0-1.28-8.918c-4.368 51.377-69.36 53.846-94.912 38.48 11.486 8.584 25.66 13.144 40.192 12.928 30.88 0 56-19.054 56-42.49z" />
    <path fill="#fffefc"
      d="M39.248 27.234c7.152-4.135 16.656-11.896 26-11.911a15.372 15.372 0 0 0-4.448-.695c-3.872 0-8 1.93-13.2 4.83-1.808 1.018-3.68 2.144-5.664 3.317-3.728 2.222-8 4.736-12.8 7.251C13.904 37.972 4.8 51.071 4.8 65.08v1.836c9.696-33.033 27.312-35.547 34.448-39.682z" />
    <path fill="#ccbea7"
      d="M56.192 18.532A24.553 24.553 0 0 1 53.867 29.1a25.407 25.407 0 0 1-6.683 8.671c-.448.386-.096 1.127.48.91 5.392-2.02 12.672-8.068 9.6-20.272-.128-.695-1.072-.51-1.072.123zm3.632 0a24.474 24.474 0 0 1 3.646 10.12c.445 3.587.08 7.224-1.07 10.662-.192.54.496 1.003.88.556 3.504-4.32 6.56-12.899-2.592-22.156-.464-.4-1.184.216-.864.756zm4.416-.262a25.702 25.702 0 0 1 7.521 7.925A24.71 24.71 0 0 1 75.2 36.414c-.016.13.02.26.101.365a.543.543 0 0 0 .718.117.509.509 0 0 0 .221-.313c1.472-5.384.64-14.564-11.472-19.332-.64-.246-1.056.587-.528.957zM34.704 34.315a27.418 27.418 0 0 0 9.91-5.222 26.262 26.262 0 0 0 6.842-8.663c.288-.556 1.2-.34 1.056.277-2.768 12.343-12.032 14.92-17.792 14.58-.608.016-.592-.802-.016-.972z" />
    <path
      d="M60.8 111.443c-33.088 0-60-20.798-60-46.363 0-15.429 9.888-29.823 26.448-38.448 4.8-2.469 8.912-4.953 12.576-7.128 2.016-1.203 3.92-2.33 5.76-3.379C51.2 12.916 56 10.771 60.8 10.771c4.8 0 8.992 1.852 14.24 4.845 1.6.88 3.2 1.836 4.912 2.885 3.984 2.376 8.48 5.06 14.4 8.131 16.56 8.625 26.448 23.004 26.448 38.448 0 25.565-26.912 46.363-60 46.363zm0-96.814c-3.872 0-8 1.928-13.2 4.829-1.808 1.018-3.68 2.144-5.664 3.317-3.728 2.222-8 4.736-12.8 7.251C13.904 37.972 4.8 51.071 4.8 65.08c0 23.436 25.12 42.506 56 42.506s56-19.07 56-42.506c0-14.01-9.104-27.108-24.352-35.023-6.048-3.086-10.768-5.986-14.592-8.27-1.744-1.033-3.344-1.99-4.8-2.838-4.848-2.778-8.384-4.32-12.256-4.32z" />
    <path fill="#b71422"
      d="M72.08 76.343c-.719 2.839-2.355 5.383-4.672 7.267a11.07 11.07 0 0 1-6.4 2.9 11.13 11.13 0 0 1-6.608-2.9c-2.293-1.892-3.906-4.436-4.608-7.267a1.073 1.073 0 0 1 .05-.5 1.11 1.11 0 0 1 .272-.428 1.19 1.19 0 0 1 .958-.322h19.744a1.185 1.185 0 0 1 .947.33 1.073 1.073 0 0 1 .317.92z" />
    <path fill="#ff6164"
      d="M54.4 83.733a11.24 11.24 0 0 0 6.592 2.932 11.239 11.239 0 0 0 6.576-2.932 16.652 16.652 0 0 0 1.6-1.65 10.904 10.904 0 0 0-3.538-2.564 11.26 11.26 0 0 0-4.302-1 10.121 10.121 0 0 0-4.549 1.192 9.71 9.71 0 0 0-3.451 3.097c.368.323.688.632 1.072.925z" />
    <path
      d="M54.656 82.514a8.518 8.518 0 0 1 2.97-2.347 8.836 8.836 0 0 1 3.734-.862 9.78 9.78 0 0 1 6.4 2.608c.368-.386.72-.787 1.056-1.188-2.035-1.87-4.726-2.933-7.536-2.978a10.487 10.487 0 0 0-4.335.975 10.125 10.125 0 0 0-3.489 2.666c.378.396.779.772 1.2 1.126z" />
    <path
      d="M60.944 87.436a12.078 12.078 0 0 1-7.12-3.086c-2.477-2.02-4.22-4.75-4.976-7.791-.054-.27-.045-.55.027-.817a1.83 1.83 0 0 1 .389-.726 2.25 2.25 0 0 1 .81-.595 2.32 2.32 0 0 1 .998-.192h19.744c.343-.007.683.06.996.196a2.3 2.3 0 0 1 .812.591c.182.212.313.46.382.728.07.267.076.545.018.815-.756 3.042-2.5 5.771-4.976 7.791a12.078 12.078 0 0 1-7.104 3.086zm-9.872-11.417c-.256 0-.32.108-.336.139.676 2.638 2.206 4.999 4.368 6.742a10.122 10.122 0 0 0 5.84 2.7 10.207 10.207 0 0 0 5.84-2.67c2.155-1.745 3.679-4.106 4.352-6.741a.333.333 0 0 0-.14-.113.348.348 0 0 0-.18-.026z" />
    <path fill="#febbd0"
      d="M85.152 77.3c5.17 0 9.36-2.377 9.36-5.308s-4.19-5.307-9.36-5.307c-5.17 0-9.36 2.376-9.36 5.307 0 2.931 4.19 5.307 9.36 5.307zm-48.432 0c5.17 0 9.36-2.377 9.36-5.308s-4.19-5.307-9.36-5.307c-5.17 0-9.36 2.376-9.36 5.307 0 2.931 4.19 5.307 9.36 5.307z" />
    <path
      d="M41.12 69.863a9.052 9.052 0 0 0 4.902-1.425 8.578 8.578 0 0 0 3.254-3.812 8.22 8.22 0 0 0 .508-4.913 8.41 8.41 0 0 0-2.408-4.357 8.92 8.92 0 0 0-4.514-2.33 9.12 9.12 0 0 0-5.096.48 8.755 8.755 0 0 0-3.96 3.131 8.287 8.287 0 0 0-1.486 4.725c0 2.252.927 4.412 2.577 6.005 1.65 1.594 3.888 2.492 6.223 2.496zm39.632 0a9.054 9.054 0 0 0 4.915-1.403 8.582 8.582 0 0 0 3.275-3.802 8.22 8.22 0 0 0 .528-4.917 8.408 8.408 0 0 0-2.398-4.368 8.92 8.92 0 0 0-4.512-2.344 9.12 9.12 0 0 0-5.103.473 8.756 8.756 0 0 0-3.967 3.13 8.287 8.287 0 0 0-1.49 4.73c-.004 2.245.914 4.4 2.555 5.994 1.64 1.593 3.869 2.495 6.197 2.507z" />
    <path fill="#fff"
      d="M38.4 61.902a3.4 3.4 0 0 0 1.844-.531c.547-.35.974-.847 1.227-1.43a3.088 3.088 0 0 0 .195-1.847 3.16 3.16 0 0 0-.902-1.639 3.351 3.351 0 0 0-1.696-.878 3.426 3.426 0 0 0-1.916.179 3.29 3.29 0 0 0-1.489 1.176 3.113 3.113 0 0 0-.559 1.776c0 .844.347 1.654.964 2.253a3.374 3.374 0 0 0 2.332.94zm39.632 0a3.4 3.4 0 0 0 1.844-.531c.547-.35.974-.847 1.227-1.43a3.088 3.088 0 0 0 .195-1.847 3.16 3.16 0 0 0-.902-1.639 3.351 3.351 0 0 0-1.696-.878 3.426 3.426 0 0 0-1.916.179 3.29 3.29 0 0 0-1.489 1.176 3.113 3.113 0 0 0-.559 1.776c0 .84.342 1.644.953 2.242.61.598 1.44.94 2.311.952z" />
  </symbol>

  <symbol id="github" fill="currentColor" viewBox="0 -0.5 25 25">
    <g strokeWidth="0"></g>
    <g strokeLinecap="round" strokeLinejoin="round"></g>
    <g>
      <path
        d="m12.301 0h.093c2.242 0 4.34.613 6.137 1.68l-.055-.031c1.871 1.094 3.386 2.609 4.449 4.422l.031.058c1.04 1.769 1.654 3.896 1.654 6.166 0 5.406-3.483 10-8.327 11.658l-.087.026c-.063.02-.135.031-.209.031-.162 0-.312-.054-.433-.144l.002.001c-.128-.115-.208-.281-.208-.466 0-.005 0-.01 0-.014v.001q0-.048.008-1.226t.008-2.154c.007-.075.011-.161.011-.249 0-.792-.323-1.508-.844-2.025.618-.061 1.176-.163 1.718-.305l-.076.017c.573-.16 1.073-.373 1.537-.642l-.031.017c.508-.28.938-.636 1.292-1.058l.006-.007c.372-.476.663-1.036.84-1.645l.009-.035c.209-.683.329-1.468.329-2.281 0-.045 0-.091-.001-.136v.007c0-.022.001-.047.001-.072 0-1.248-.482-2.383-1.269-3.23l.003.003c.168-.44.265-.948.265-1.479 0-.649-.145-1.263-.404-1.814l.011.026c-.115-.022-.246-.035-.381-.035-.334 0-.649.078-.929.216l.012-.005c-.568.21-1.054.448-1.512.726l.038-.022-.609.384c-.922-.264-1.981-.416-3.075-.416s-2.153.152-3.157.436l.081-.02q-.256-.176-.681-.433c-.373-.214-.814-.421-1.272-.595l-.066-.022c-.293-.154-.64-.244-1.009-.244-.124 0-.246.01-.364.03l.013-.002c-.248.524-.393 1.139-.393 1.788 0 .531.097 1.04.275 1.509l-.01-.029c-.785.844-1.266 1.979-1.266 3.227 0 .025 0 .051.001.076v-.004c-.001.039-.001.084-.001.13 0 .809.12 1.591.344 2.327l-.015-.057c.189.643.476 1.202.85 1.693l-.009-.013c.354.435.782.793 1.267 1.062l.022.011c.432.252.933.465 1.46.614l.046.011c.466.125 1.024.227 1.595.284l.046.004c-.431.428-.718 1-.784 1.638l-.001.012c-.207.101-.448.183-.699.236l-.021.004c-.256.051-.549.08-.85.08-.022 0-.044 0-.066 0h.003c-.394-.008-.756-.136-1.055-.348l.006.004c-.371-.259-.671-.595-.881-.986l-.007-.015c-.198-.336-.459-.614-.768-.827l-.009-.006c-.225-.169-.49-.301-.776-.38l-.016-.004-.32-.048c-.023-.002-.05-.003-.077-.003-.14 0-.273.028-.394.077l.007-.003q-.128.072-.08.184c.039.086.087.16.145.225l-.001-.001c.061.072.13.135.205.19l.003.002.112.08c.283.148.516.354.693.603l.004.006c.191.237.359.505.494.792l.01.024.16.368c.135.402.38.738.7.981l.005.004c.3.234.662.402 1.057.478l.016.002c.33.064.714.104 1.106.112h.007c.045.002.097.002.15.002.261 0 .517-.021.767-.062l-.027.004.368-.064q0 .609.008 1.418t.008.873v.014c0 .185-.08.351-.208.466h-.001c-.119.089-.268.143-.431.143-.075 0-.147-.011-.214-.032l.005.001c-4.929-1.689-8.409-6.283-8.409-11.69 0-2.268.612-4.393 1.681-6.219l-.032.058c1.094-1.871 2.609-3.386 4.422-4.449l.058-.031c1.739-1.034 3.835-1.645 6.073-1.645h.098-.005zm-7.64 17.666q.048-.112-.112-.192-.16-.048-.208.032-.048.112.112.192.144.096.208-.032zm.497.545q.112-.08-.032-.256-.16-.144-.256-.048-.112.08.032.256.159.157.256.047zm.48.72q.144-.112 0-.304-.128-.208-.272-.096-.144.08 0 .288t.272.112zm.672.673q.128-.128-.064-.304-.192-.192-.32-.048-.144.128.064.304.192.192.32.044zm.913.4q.048-.176-.208-.256-.24-.064-.304.112t.208.24q.24.097.304-.096zm1.009.08q0-.208-.272-.176-.256 0-.256.176 0 .208.272.176.256.001.256-.175zm.929-.16q-.032-.176-.288-.144-.256.048-.224.24t.288.128.225-.224z">
      </path>
    </g>
  </symbol>

  <symbol id="hono" fill="none" viewBox="0 0 24 24">
    <path fill="#ff5b11"
      d="M12.4365 0.2520325c0.062375 -0.0080215 0.11745 0.0077075 0.16515 0.0471875 1.755075 2.142025 3.40665 4.359855 4.954725 6.65348 1.14615 1.725625 2.121325 3.550175 2.92565 5.4738 1.2845 3.426025 0.616 6.40675 -2.005475 8.9421 -2.293725 1.938575 -4.936225 2.693575 -7.927575 2.265025 -3.57555 -0.729025 -6.00575 -2.7974 -7.290525 -6.205225 -0.33465 -1.109425 -0.44475 -2.241925 -0.3303 -3.397525 0.19055 -1.9891 0.662425 -3.9081 1.415625 -5.7569 0.31385 -0.75435 0.722825 -1.4464 1.2269 -2.076275 0.411225 0.4898 0.80445 0.993175 1.179675 1.510025 0.17375 0.181625 0.354625 0.35465 0.542675 0.51905C8.728325 5.378325 10.44285 2.7201 12.4365 0.2520325Z"
      opacity=".993" strokeWidth="0.25"></path>
    <path fill="#ff9758"
      d="M12.10625 4.07425c1.73145 2.008325 3.296525 4.1475 4.695175 6.41755 0.438525 0.75115 0.800275 1.537625 1.085325 2.3594 0.593825 2.336175 -0.043225 4.26305 -1.9111 5.7805 -1.80655 1.2712 -3.788425 1.6487 -5.945675 1.132525 -2.326325 -0.721875 -3.671175 -2.286975 -4.034575 -4.6952 -0.088175 -0.7593 -0.009525 -1.4986 0.23595 -2.217825 0.35005 -0.888875 0.774725 -1.73825 1.274075 -2.54815 0.471875 -0.6921 0.94375 -1.38415 1.415625 -2.07625 1.071925 -1.378375 2.13365 -2.762525 3.1852 -4.15255Z"
      strokeWidth="0.25"></path>
  </symbol>

  <symbol id="aws" viewBox="0 0 16 16">
    <g strokeWidth="0"></g>
    <g strokeLinecap="round" strokeLinejoin="round"></g>
    <g>
      <path fill="currentColor"
        d="M4.51 7.687c0 .197.02.357.058.475.042.117.096.245.17.384a.233.233 0 01.037.123c0 .053-.032.107-.1.16l-.336.224a.255.255 0 01-.138.048c-.054 0-.107-.026-.16-.074a1.652 1.652 0 01-.192-.251 4.137 4.137 0 01-.165-.315c-.415.491-.936.737-1.564.737-.447 0-.804-.129-1.064-.385-.261-.256-.394-.598-.394-1.025 0-.454.16-.822.484-1.1.325-.278.756-.416 1.304-.416.18 0 .367.016.564.042.197.027.4.07.612.118v-.39c0-.406-.085-.689-.25-.854-.17-.166-.458-.246-.868-.246-.186 0-.377.022-.574.07a4.23 4.23 0 00-.575.181 1.525 1.525 0 01-.186.07.326.326 0 01-.085.016c-.075 0-.112-.054-.112-.166v-.262c0-.085.01-.15.037-.186a.399.399 0 01.15-.113c.185-.096.409-.176.67-.24.26-.07.537-.101.83-.101.633 0 1.096.144 1.394.432.293.288.442.726.442 1.314v1.73h.01zm-2.161.811c.175 0 .356-.032.548-.096.191-.064.362-.182.505-.342a.848.848 0 00.181-.341c.032-.129.054-.283.054-.465V7.03a4.43 4.43 0 00-.49-.09 3.996 3.996 0 00-.5-.033c-.357 0-.618.07-.793.214-.176.144-.26.347-.26.614 0 .25.063.437.196.566.128.133.314.197.559.197zm4.273.577c-.096 0-.16-.016-.202-.054-.043-.032-.08-.106-.112-.208l-1.25-4.127a.938.938 0 01-.049-.214c0-.085.043-.133.128-.133h.522c.1 0 .17.016.207.053.043.032.075.107.107.208l.894 3.535.83-3.535c.026-.106.058-.176.1-.208a.365.365 0 01.214-.053h.425c.102 0 .17.016.213.053.043.032.08.107.101.208l.841 3.578.92-3.578a.458.458 0 01.107-.208.346.346 0 01.208-.053h.495c.085 0 .133.043.133.133 0 .027-.006.054-.01.086a.76.76 0 01-.038.133l-1.283 4.127c-.032.107-.069.177-.111.209a.34.34 0 01-.203.053h-.457c-.101 0-.17-.016-.213-.053-.043-.038-.08-.107-.101-.214L8.213 5.37l-.82 3.439c-.026.107-.058.176-.1.213-.043.038-.118.054-.213.054h-.458zm6.838.144a3.51 3.51 0 01-.82-.096c-.266-.064-.473-.134-.612-.214-.085-.048-.143-.101-.165-.15a.378.378 0 01-.031-.149v-.272c0-.112.042-.166.122-.166a.3.3 0 01.096.016c.032.011.08.032.133.054.18.08.378.144.585.187.213.042.42.064.633.064.336 0 .596-.059.777-.176a.575.575 0 00.277-.508.52.52 0 00-.144-.373c-.095-.102-.276-.193-.537-.278l-.772-.24c-.388-.123-.676-.305-.851-.545a1.275 1.275 0 01-.266-.774c0-.224.048-.422.143-.593.096-.17.224-.32.384-.438.16-.122.34-.213.553-.277.213-.064.436-.091.67-.091.118 0 .24.005.357.021.122.016.234.038.346.06.106.026.208.052.303.085.096.032.17.064.224.096a.46.46 0 01.16.133.289.289 0 01.047.176v.251c0 .112-.042.171-.122.171a.552.552 0 01-.202-.064 2.427 2.427 0 00-1.022-.208c-.303 0-.543.048-.708.15-.165.1-.25.256-.25.475 0 .149.053.277.16.379.106.101.303.202.585.293l.756.24c.383.123.66.294.825.513.165.219.244.47.244.748 0 .23-.047.437-.138.619a1.436 1.436 0 01-.388.47c-.165.133-.362.23-.591.299-.24.075-.49.112-.761.112z">
      </path>
      <g fill="#F90" fill-rule="evenodd" clipRule="evenodd">
        <path
          d="M14.465 11.813c-1.75 1.297-4.294 1.986-6.481 1.986-3.065 0-5.827-1.137-7.913-3.027-.165-.15-.016-.353.18-.235 2.257 1.313 5.04 2.109 7.92 2.109 1.941 0 4.075-.406 6.039-1.239.293-.133.543.192.255.406z">
        </path>
        <path
          d="M15.194 10.98c-.223-.287-1.479-.138-2.048-.069-.17.022-.197-.128-.043-.24 1-.705 2.645-.502 2.836-.267.192.24-.053 1.89-.99 2.68-.143.123-.281.06-.218-.1.213-.53.687-1.72.463-2.003z">
        </path>
      </g>
    </g>
  </symbol>

  <symbol id="postgree" fill="none" viewBox="0 0 24 24">
    <path fill="#000000"
      d="M23.33655 14.326975c-0.137 -0.41485 -0.495875 -0.703875 -0.960025 -0.77325 -0.218825 -0.032675 -0.469475 -0.018725 -0.766025 0.042425 -0.516925 0.10665 -0.90045 0.147225 -1.180325 0.155125 1.056425 -1.7837 1.915475 -3.817825 2.410025 -5.73255 0.79965 -3.096025 0.372325 -4.50645 -0.127 -5.144475C21.391675 1.1856675 19.463575 0.2784775 17.1374 0.25067c-1.2408 -0.015145 -2.3302 0.2298575 -2.8984 0.4059975 -0.5291 -0.093295 -1.09805 -0.14543 -1.695025 -0.155085 -1.118825 -0.017835 -2.1075 0.2260575 -2.952275 0.727355 -0.467775 -0.1580925 -1.2183 -0.3810375 -2.085125 -0.523355 -2.03875 -0.3347075 -3.68185 -0.073875 -4.883675 0.775165C1.1675425 2.508775 0.49285 4.294875 0.6176475 6.789475c0.039575 0.79205 0.48267 3.201825 1.1802625 5.48725 0.4009325 1.313575 0.828465 2.40445 1.270715 3.2425 0.62715 1.1884 1.2982 1.88825 2.051575 2.13955 0.4223 0.140725 1.1895 0.2392 1.996475 -0.43275 0.102275 0.123775 0.238675 0.2469 0.419825 0.361175 0.22995 0.145075 0.511225 0.2636 0.79205 0.333825 1.01225 0.253075 1.960375 0.18975 2.769275 -0.1649 0.00495 0.14385 0.0088 0.2813 0.012075 0.399975 0.005375 0.19255 0.01065 0.3813 0.017725 0.557825 0.047925 1.1937 0.129125 2.12185 0.36975 2.771225 0.0132 0.035775 0.030975 0.090175 0.04975 0.14785 0.12 0.367575 0.3208 0.98285 0.831425 1.464775 0.5289 0.49915 1.16855 0.652275 1.754375 0.652225 0.293825 0 0.574175 -0.038525 0.820025 -0.091225 0.876525 -0.187825 1.87195 -0.474025 2.592025 -1.4993 0.68075 -0.9693 1.011725 -2.4292 1.071625 -4.729575 0.00775 -0.065 0.014925 -0.1271 0.021825 -0.186325 0.00465 -0.039925 0.0094 -0.080775 0.0142 -0.121525l0.160425 0.0141 0.0413 0.0028c0.89275 0.040675 1.9843 -0.14865 2.654675 -0.460025 0.529725 -0.24585 2.227175 -1.141975 1.827525 -2.35195Z"
      strokeWidth="0.25"></path>
    <path fill="#336791"
      d="M21.8101 14.5623c-2.65435 0.547525 -2.836825 -0.35115 -2.836825 -0.35115C21.77585 10.0526 22.9474 4.773925 21.936375 3.482 19.178175 -0.04211275 14.403625 1.6245675 14.32395 1.6678375l-0.02565 0.0045925c-0.524425 -0.10886 -1.1113 -0.1737125 -1.7709 -0.1844775 -1.20105 -0.0196825 -2.1121 0.3148675 -2.803425 0.8391175 0 0 -8.5173475 -3.508815 -8.1212175 4.413005 0.08427 1.6853 2.4155175 12.751775 5.1961175 9.409175 1.016325 -1.22225 1.9983 -2.255725 1.9983 -2.255725 0.487725 0.324 1.0716 0.489275 1.683725 0.4299l0.047525 -0.040375c-0.014775 0.151775 -0.008025 0.3002 0.01905 0.475925 -0.716325 0.800325 -0.505825 0.94085 -1.9378 1.235625 -1.44895 0.2986 -0.59775 0.83025 -0.042 0.969175 0.67375 0.1685 2.23245 0.407175 3.28565 -1.067175l-0.042 0.168225c0.280675 0.2248 0.477775 1.46225 0.444725 2.584 -0.033025 1.1218 -0.055075 1.89195 0.166075 2.4935 0.22115 0.601575 0.44155 1.955075 2.324 1.5517 1.572975 -0.337075 2.388075 -1.2106 2.501475 -2.667675 0.080475 -1.0359 0.262575 -0.882775 0.274075 -1.8089l0.146075 -0.43845c0.168425 -1.4042 0.02675 -1.857225 0.99585 -1.646525l0.2355 0.020675c0.71325 0.032475 1.646775 -0.1147 2.194675 -0.369375 1.179775 -0.5475 1.8795 -1.461675 0.716225 -1.221475h0.0001Z"
      strokeWidth="0.25"></path>
    <path fill="#ffffff"
      d="M10.222625 7.493775c-0.23915 -0.0333 -0.4558 -0.002475 -0.5654 0.080475 -0.0617 0.0467 -0.08075 0.100775 -0.08585 0.13805 -0.013775 0.098625 0.05535 0.207625 0.097775 0.263875 0.1201 0.1592 0.2956 0.26865 0.469325 0.292775 0.02515 0.003475 0.050175 0.005175 0.075075 0.005175 0.2897 0 0.553 -0.22555 0.576225 -0.392025 0.029025 -0.2085 -0.27365 -0.347475 -0.56715 -0.388325Z"
      strokeWidth="0.25"></path>
    <path fill="#ffffff"
      d="M18.146775 7.50035c-0.0228 -0.163425 -0.3137 -0.210025 -0.589675 -0.171675 -0.275575 0.038425 -0.542825 0.1628 -0.520525 0.3266 0.01795 0.127375 0.24785 0.344825 0.52015 0.344775 0.02295 0 0.046175 -0.001525 0.06955 -0.0048 0.181725 -0.025175 0.315075 -0.140575 0.3784 -0.2071 0.0965 -0.101325 0.152275 -0.21435 0.1421 -0.2878Z"
      strokeWidth="0.25"></path>
    <path fill="#ffffff"
      d="M22.693375 14.500275c-0.1012 -0.306075 -0.426925 -0.404575 -0.968175 -0.292775 -1.607 0.33165 -2.1825 0.1019 -2.3715 -0.03725 1.249125 -1.902925 2.276675 -4.203025 2.831 -6.34915 0.262625 -1.016575 0.407675 -1.96065 0.4195 -2.730125 0.0131 -0.844725 -0.1307 -1.465325 -0.427425 -1.84445 -1.1962 -1.52849 -2.951725 -2.3483475 -5.076875 -2.37088 -1.460925 -0.01641 -2.695275 0.357505 -2.934575 0.46262 -0.50395 -0.125325 -1.053325 -0.2022625 -1.651325 -0.212075 -1.0968 -0.01773 -2.044775 0.2448425 -2.8297 0.7800175 -0.340925 -0.126855 -1.22205 -0.4293225 -2.299525 -0.602875 -1.862925 -0.2999875 -3.343225 -0.072715 -4.39965 0.675695C1.7245975 2.872075 1.14267 4.468425 1.2554375 6.723625c0.03794 0.7588 0.470215 3.0929 1.1525075 5.32825C3.306 14.993975 4.282175 16.65955 5.30935 17.0021c0.1202 0.040125 0.258875 0.068175 0.4117 0.068175 0.3747 0 0.83405 -0.1689 1.312025 -0.7435 0.7939 -0.9551 1.535125 -1.755425 1.80835 -2.046225 0.4038 0.216775 0.8473 0.33775 1.30105 0.3499 0.0008 0.011875 0.002025 0.02375 0.003075 0.035575 -0.091025 0.10795 -0.1657 0.202575 -0.229325 0.28335 -0.31435 0.399025 -0.379775 0.4821 -1.391675 0.690475 -0.287775 0.059375 -1.05235 0.216925 -1.063475 0.7528 -0.0122 0.58545 0.9036 0.83135 1.007975 0.857425 0.363625 0.091025 0.7139 0.135925 1.047975 0.135925 0.812525 -0.00005 1.527475 -0.26705 2.0989 -0.783725 -0.017625 2.08725 0.06945 4.144 0.32005 4.770675 0.2052 0.51295 0.706675 1.766725 2.2906 1.766625 0.23235 0 0.488225 -0.027025 0.769625 -0.087325 1.653025 -0.35445 2.370825 -1.085025 2.64855 -2.695725 0.148575 -0.8608 0.403625 -2.91645 0.5235 -4.019025 0.253125 0.078925 0.579025 0.115075 0.9313 0.115025 0.73475 0 1.582525 -0.156075 2.114225 -0.402875 0.597225 -0.27735 1.675075 -0.958075 1.4796 -1.549375ZM18.756825 7.0494c-0.005475 0.325525 -0.050275 0.62105 -0.097775 0.929525 -0.051075 0.33175 -0.10395 0.67475 -0.11725 1.091125 -0.01315 0.405225 0.037475 0.826525 0.086425 1.233875 0.0989 0.822875 0.200375 1.670075 -0.1925 2.506025 -0.06105 -0.10845 -0.119975 -0.22675 -0.174025 -0.357775 -0.0488 -0.11835 -0.154825 -0.308475 -0.301575 -0.571625 -0.57115 -1.024225 -1.9086 -3.42275 -1.22395 -4.4015 0.2039 -0.291375 0.72145 -0.59085 2.02065 -0.42965Zm-1.57475 -5.514575c1.904075 0.0420575 3.41025 0.7543725 4.476675 2.11705 0.817925 1.04525 -0.082725 5.801225 -2.69005 9.904225 -0.02575 -0.032725 -0.051975 -0.06575 -0.0791 -0.09965 -0.010825 -0.01355 -0.02185 -0.027325 -0.032975 -0.04125 0.673725 -1.112725 0.541975 -2.213625 0.424725 -3.189725 -0.048175 -0.400575 -0.093675 -0.778925 -0.082125 -1.13425 0.012 -0.376775 0.0618 -0.699775 0.109925 -1.01215 0.05925 -0.385 0.119475 -0.7833 0.10285 -1.252875 0.0124 -0.049225 0.0174 -0.107425 0.010925 -0.1765 -0.042425 -0.450325 -0.5565 -1.797875 -1.604375 -3.0177 -0.5731 -0.6671 -1.409 -1.4137225 -2.550275 -1.9172875 0.4909 -0.1017375 1.162225 -0.196615 1.9138 -0.1798875ZM6.5273 15.906225c-0.526575 0.6331 -0.89025 0.5118 -1.009825 0.47195 -0.779225 -0.259925 -1.683325 -1.906775 -2.480425 -4.518325 -0.689735 -2.259675 -1.0928325 -4.531925 -1.1247025 -5.1691 -0.100735 -2.015125 0.38774 -3.419525 1.4519025 -4.174225 1.73185 -1.22818 4.579225 -0.4930675 5.72335 -0.1202075 -0.016475 0.0162 -0.033575 0.0313975 -0.049875 0.04786 -1.877425 1.8961225 -1.8329 5.1356475 -1.8283 5.3336475 -0.00015 0.0764 0.006225 0.184575 0.015025 0.333375 0.0323 0.54485 0.0924 1.55895 -0.068175 2.707375 -0.149275 1.0672 0.179675 2.111725 0.9024 2.8658 0.074825 0.078025 0.152925 0.151325 0.2336 0.2203 -0.321725 0.344525 -1.02085 1.106325 -1.764975 2.00155Zm2.006275 -2.676975c-0.5825 -0.60775 -0.847025 -1.453125 -0.725875 -2.3196 0.1696 -1.213175 0.106975 -2.26975 0.07335 -2.837375 -0.0047 -0.079425 -0.00885 -0.149025 -0.01135 -0.20395 0.2743 -0.24315 1.545325 -0.92425 2.451725 -0.71655 0.4137 0.094775 0.665675 0.3764 0.770475 0.860925 0.54235 2.508225 0.0718 3.55365 -0.306275 4.393725 -0.07795 0.173075 -0.15155 0.336675 -0.21445 0.50595l-0.0487 0.1308c-0.123375 0.3308 -0.23815 0.63835 -0.309275 0.930425 -0.619175 -0.0019 -1.221575 -0.266375 -1.679625 -0.74435Zm0.09505 3.3827c-0.1808 -0.045175 -0.343425 -0.12365 -0.438825 -0.1887 0.079675 -0.037525 0.221525 -0.0885 0.467475 -0.13915 1.1904 -0.245125 1.374175 -0.418025 1.77565 -0.927775 0.092075 -0.116825 0.1964 -0.249325 0.340875 -0.4107l0.00015 -0.0002c0.21525 -0.24095 0.313675 -0.2001 0.492175 -0.126075 0.1447 0.0599 0.285575 0.2412 0.342725 0.440775 0.027025 0.09425 0.057425 0.273175 -0.04195 0.412325 -0.838625 1.1742 -2.06065 1.159125 -2.938275 0.9395Zm6.2297 5.79715c-1.45625 0.312025 -1.97185 -0.431 -2.311625 -1.280425 -0.2193 -0.5484 -0.32705 -3.021275 -0.2506 -5.752075 0.001025 -0.036375 -0.00415 -0.07145 -0.014175 -0.10445 -0.008725 -0.063675 -0.022125 -0.1281 -0.0407 -0.192975 -0.11375 -0.397325 -0.39085 -0.729725 -0.723275 -0.8675 -0.1321 -0.054725 -0.37455 -0.155125 -0.6659 -0.080625 0.062175 -0.255975 0.169925 -0.545 0.2867 -0.858l0.049025 -0.131725c0.0552 -0.148425 0.124375 -0.3022 0.1976 -0.464925 0.395675 -0.879025 0.93755 -2.082925 0.34945 -4.80275 -0.220325 -1.0187 -0.9559 -1.516125 -2.07105 -1.400625 -0.668575 0.069175 -1.28015 0.338925 -1.5852 0.4936 -0.0656 0.033225 -0.1256 0.065325 -0.181625 0.0966 0.0851 -1.026425 0.406825 -2.9446 1.61015 -4.158225 0.7576 -0.76408 1.766625 -1.141425 2.996025 -1.12111 2.422325 0.0396825 3.97565 1.282785 4.8523 2.318685 0.755375 0.892675 1.164425 1.79185 1.327675 2.276775 -1.22765 -0.124775 -2.0626 0.117575 -2.4859 0.722675 -0.9208 1.31625 0.503775 3.871075 1.18845 5.098875 0.125525 0.22505 0.233925 0.4195 0.268 0.50215 0.22295 0.540325 0.5116 0.90105 0.72235 1.164425 0.0646 0.080675 0.127275 0.158925 0.174925 0.227275 -0.3718 0.107225 -1.039675 0.35485 -0.97885 1.59285 -0.049075 0.62125 -0.398175 3.5296 -0.575475 4.557175 -0.2341 1.3575 -0.73365 1.863175 -2.138275 2.164325Zm6.07845 -6.95605c-0.380175 0.1765 -1.01645 0.3089 -1.620925 0.3373 -0.667625 0.031275 -1.00745 -0.074775 -1.0874 -0.14 -0.03755 -0.771475 0.24965 -0.8521 0.55355 -0.937425 0.04775 -0.01345 0.09435 -0.0265 0.1393 -0.042225 0.027975 0.02275 0.058575 0.045325 0.092075 0.06745 0.5366 0.354175 1.493725 0.392375 2.84485 0.1135 0.00495 -0.00105 0.009925 -0.002 0.014825 -0.003 -0.1822 0.170375 -0.494075 0.399075 -0.936275 0.6044Z"
      strokeWidth="0.25"></path>
  </symbol>

  <symbol id="cicd" fill="none" viewBox="0 0 24 24">
    <path fill="#4a7ebf"
      d="M5.170675 0.24998475c2.71755 0 4.920675 2.20240025 4.920675 4.91944025 0 2.670375 -2.128675 4.84225 -4.781975 4.915925 0 0.22595 0.009975 0.652825 0.13785 0.910575 0.177375 0.357475 1.24145 1.023075 2.284975 1.023075h0.3749c0.2356 -1.67725 1.6759 -2.968 3.418475 -2.968 1.735525 0 3.171625 1.28025 3.415875 2.94755h1.9396c0.24435 -1.6673 1.68035 -2.94755 3.415875 -2.94755 1.907025 0 3.45305 1.54555 3.45305 3.4522 0 1.90655 -1.546025 3.4521 -3.45305 3.4521 -1.735525 0 -3.1716 -1.2803 -3.415875 -2.947625h-1.9395c-0.244275 1.667325 -1.68035 2.947625 -3.415975 2.947625 -1.73225 0 -3.166375 -1.27535 -3.4147 -2.938125l-0.4145 0.01235c-0.6825 -0.005125 -1.403525 -0.187375 -1.98265 -0.58085 -0.157875 -0.1073 -0.313425 -0.220025 -0.475675 -0.326825l-0.00005 0.22415c-0.000875 0.07245 -0.01395 1.16185 -0.015 2.3714l-0.000025 0.2561c0.000475 0.793225 0.00675 1.61055 0.025425 2.2067 0.04095 1.307825 1.10475 2.36335 2.27865 2.610425 0.152575 0.03205 0.414925 0.03615 0.580225 0.021875 0.236025 -1.67665 1.676125 -2.9669 3.4183 -2.9669 1.90705 0 3.45305 1.545625 3.45305 3.4522 0 1.90655 -1.546 3.452175 -3.45305 3.452175 -1.7229 0 -3.15075 -1.26165 -3.410475 -2.9112h-0.2987c-2.24315 -0.12245 -3.637775 -2.179875 -3.61345 -3.84845 0.0307 -2.10005 0.007575 -4.20095 0.007225 -6.301525v-0.69435C1.95247 9.54775 0.25 7.5576 0.25 5.169425 0.25 2.452385 2.4530325 0.24998475 5.170675 0.24998475ZM11.525575 17.854725c-1.349525 0 -2.4436 1.0938 -2.4436 2.443075 0 1.349275 1.094075 2.443075 2.4436 2.443075 1.349625 0 2.4437 -1.0938 2.4437 -2.443075 0 -1.349275 -1.094075 -2.443075 -2.4437 -2.443075Zm0 -7.7946c-1.349525 0 -2.4436 1.0938 -2.4436 2.443075 0 1.3492 1.094075 2.443 2.4436 2.443 1.349625 0 2.4437 -1.0938 2.4437 -2.443 0 -1.349275 -1.094075 -2.443075 -2.4437 -2.443075Zm8.77135 0c-1.349625 0 -2.4436 1.0938 -2.4436 2.443075 0 1.3492 1.093975 2.443 2.4436 2.443 1.3496 0 2.443675 -1.0938 2.443675 -2.443 0 -1.349275 -1.094075 -2.443075 -2.443675 -2.443075Zm1.3917 1.41445c0.192275 0.191825 0.197575 0.500025 0.015625 0.69815l-0.0147 0.015475 -1.49715 1.500375c-0.190775 0.191225 -0.49705 0.197625 -0.69555 0.018175l-0.0158 -0.014975 -0.732975 -0.721525c-0.1986 -0.1955 -0.201125 -0.514975 -0.00555 -0.713525 0.1906 -0.1935 0.4988 -0.2008 0.698225 -0.020175l0.015475 0.014725 0.37565 0.36965 1.143025 -1.145425c0.196825 -0.197375 0.516375 -0.1977 0.713725 -0.000925Zm-8.811575 -0.0074c0.192275 0.191825 0.197575 0.500025 0.01565 0.69825l-0.014725 0.015375 -1.49715 1.5004c-0.190775 0.191225 -0.497025 0.1976 -0.69555 0.01815l-0.0158 -0.01495 -0.732975 -0.721525c-0.1986 -0.195525 -0.201125 -0.515 -0.00555 -0.713525 0.190525 -0.1935 0.4988 -0.200825 0.698225 -0.0201l0.015475 0.014625 0.37565 0.369675 1.143025 -1.14545c0.19685 -0.197275 0.5164 -0.1977 0.713725 -0.000925ZM5.170675 1.2591025c-2.160125 0 -3.911305 1.7506475 -3.911305 3.9103225 0 2.1596 1.75118 3.91035 3.911305 3.91035s3.9113 -1.75075 3.9113 -3.91035c0 -2.159675 -1.751175 -3.9103225 -3.9113 -3.9103225Zm-0.406975 1.5731725c0.8229 0.494375 1.634675 1.00575 2.43545 1.534025 0.6708 0.4425 0.669125 1.245 -0.009175 1.6885 -0.81505 0.533325 -1.643075 1.0447 -2.483875 1.5341 -0.684375 0.39835 -1.4504 -0.0597 -1.468975 -0.85775 -0.01195 -0.5143 -0.0022 -1.029125 -0.002875 -1.543775 -0.000575 -0.500675 -0.010425 -1.001625 0.0017 -1.502075 0.020425 -0.8489 0.801925 -1.2912425 1.52775 -0.853025Zm-0.54245 0.81435v0.355125c-0.000075 0.17585 -0.000075 0.349325 -0.000175 0.520875l-0.000075 0.340575v0.503125c0.000075 0.38835 0.00025 0.77055 0.000925 1.15275 0.00035 0.179875 0.09395 0.172575 0.215075 0.09755 0.69815 -0.43275 1.39665 -0.864975 2.09545 -1.2968 0.1155 -0.071225 0.118775 -0.14565 0.005475 -0.217125 -0.74845 -0.471675 -1.4979 -0.94175 -2.316675 -1.456075Z"
      strokeWidth="0.25"></path>
    <path fill="#85b3df"
      d="M12.479775 20.801375c0.278675 0 0.5047 -0.225875 0.5047 -0.50455 0 -0.2786 -0.226025 -0.50455 -0.5047 -0.50455 -0.27865 0 -0.504675 0.22595 -0.504675 0.50455 0 0.278675 0.226025 0.50455 0.504675 0.50455Z"
      strokeWidth="0.25"></path>
    <path fill="#85b3df"
      d="M10.547775 20.801375c0.278675 0 0.504675 -0.225875 0.504675 -0.50455 0 -0.2786 -0.226 -0.50455 -0.504675 -0.50455s-0.504675 0.22595 -0.504675 0.50455c0 0.278675 0.226 0.50455 0.504675 0.50455Z"
      strokeWidth="0.25"></path>
    <path fill="#85b3df"
      d="M20.29705 22.7409c-1.3496 0 -2.4436 -1.0938 -2.4436 -2.443075 0 -1.349275 1.094 -2.443075 2.4436 -2.443075 1.349525 0 2.443675 1.0938 2.443675 2.443075 0 1.349275 -1.09415 2.443075 -2.443675 2.443075Zm0 -5.895275c-1.735525 0 -3.1716 1.280325 -3.415875 2.947625h-0.56475c-0.246525 0 -0.44655 0.225975 -0.44655 0.504575 0 0.278675 0.200025 0.50455 0.44655 0.50455h0.56475C17.12545 22.4697 18.561525 23.75 20.29705 23.75c1.90705 0 3.45305 -1.545625 3.45305 -3.452175 0 -1.906575 -1.546 -3.4522 -3.45305 -3.4522Z"
      strokeWidth="0.25"></path>
  </symbol>

  <symbol id="jest" preserveAspectRatio="xMidYMid" viewBox="0 0 256 283">
    <path
      d="M240 139a26 26 0 0 0-29-26L247 6H93l36 107a26 26 0 0 0-28 26c0 12 8 22 19 25a115 115 0 0 1-58 49c-16-8-23-27-17-43l3-5a26 26 0 1 0-21-4c-7 14-16 30-19 48-4 21 0 44 18 57 44 30 91-18 140-31 18-4 38-3 54-13 12-6 20-18 22-31 2-12-1-25-9-35 4-5 7-11 7-17"
      fill="#99425B" />
    <path
      d="M236 190c-2 11-9 21-19 27-10 5-21 7-33 9l-19 3c-17 4-34 12-50 20-32 16-59 30-85 12-19-13-18-38-16-51 2-12 8-24 13-35l3-5 8 2c-5 18 3 37 21 47l3 1 2-1c15-5 28-13 39-24 8-7 14-15 20-24a33 33 0 0 0 37-28h21a33 33 0 0 0 51 23c4 7 5 16 4 24ZM42 119a20 20 0 1 1 0 40 20 20 0 0 1 0-40Zm66 20a20 20 0 1 1 40 0 20 20 0 0 1-40 0Zm83-24c-5 4-8 10-9 15h-23c-1-6-5-11-10-15l21-42 21 42ZM102 13h136l-32 94-4 1-32-64-32 64-4-1-32-94Zm131 126a20 20 0 0 1-20 20 20 20 0 1 1 20-20Zm13 0c0-16-12-29-27-32L256 0H84l37 107a33 33 0 0 0-11 60 110 110 0 0 1-47 39c-12-8-17-21-12-33l1-1 1-2a33 33 0 1 0-34-8l-4 8c-5 11-11 24-14 38-4 28 3 51 22 63 11 8 22 11 34 11 21 0 43-11 64-21 15-8 31-16 47-19l18-4c13-1 26-3 37-10a51 51 0 0 0 18-72c3-5 5-11 5-17Z"
      fill="#FFF" />
  </symbol>

  <symbol id="bullmq" viewBox="0 0 305 178">
    <path
      d="M0,0 L10,1 L24,8 L34,11 L44,17 L48,21 L56,25 L61,31 L69,43 L78,51 L83,66 L87,70 L88,72 L88,87 L90,91 L95,93 L103,94 L103,97 L99,99 L89,99 L82,95 L78,88 L77,84 L70,91 L61,94 L54,99 L52,99 L51,104 L50,105 L43,104 L39,100 L39,97 L37,97 L35,87 L36,83 L38,83 L39,69 L41,66 L38,68 L37,77 L30,80 L26,87 L34,95 L35,100 L31,108 L26,111 L18,115 L8,123 L2,123 L-3,127 L-8,129 L-17,129 L-18,125 L-11,111 L-8,110 L0,112 L-1,106 L3,104 L15,101 L17,99 L8,97 L2,93 L-3,90 L-11,87 L-13,85 L-14,78 L-11,67 L-15,77 L-15,86 L-10,90 L1,94 L9,100 L9,102 L-2,105 L-10,104 L-12,103 L-13,108 L-24,115 L-35,124 L-41,125 L-52,122 L-51,118 L-46,109 L-41,108 L-37,110 L-30,104 L-28,99 L-31,99 L-48,103 L-50,104 L-50,107 L-52,108 L-63,108 L-68,106 L-66,101 L-66,100 L-73,113 L-77,119 L-67,127 L-62,132 L-57,146 L-59,148 L-75,148 L-77,146 L-77,142 L-83,139 L-83,134 L-87,132 L-106,128 L-108,127 L-107,113 L-118,117 L-135,117 L-148,116 L-156,120 L-163,127 L-160,140 L-160,147 L-161,148 L-174,148 L-180,145 L-181,141 L-179,132 L-180,124 L-168,113 L-161,105 L-156,100 L-142,100 L-146,105 L-140,103 L-129,96 L-123,91 L-112,71 L-108,66 L-100,63 L-83,60 L-93,59 L-93,57 L-64,48 L-73,50 L-75,51 L-86,51 L-86,49 L-70,44 L-54,36 L-40,29 L-23,25 L-19,23 L-26,23 L-26,21 L-16,17 L-6,15 L0,10 L6,8 L-2,7 L-11,10 L-31,23 L-35,25 L-39,24 L-25,14 L-10,3 L-6,1 Z M-16,21 Z M0,24 L-7,28 L-12,32 L-11,34 L-3,28 L7,26 L4,24 Z M9,25 Z M-13,34 Z M-14,35 Z M-15,36 Z M64,49 Z M63,52 Z M29,59 Z M52,61 Z M49,62 Z M46,63 Z M27,64 Z M43,64 Z M26,65 Z M75,67 L73,69 L78,71 L81,74 L80,69 L79,67 Z M23,68 Z M22,69 Z M72,69 Z M21,70 Z M19,71 Z M17,72 Z M15,73 Z M14,74 L15,76 Z M15,76 Z M81,76 Z M17,77 Z M18,78 Z M71,78 Z M19,79 Z M72,79 Z M20,80 Z M59,80 L60,84 Z M21,81 Z M22,82 Z M23,83 Z M59,86 Z M41,90 L42,93 Z M40,94 L41,96 Z M-63,95 Z M-64,96 Z M-111,97 Z M-110,98 L-108,102 L-104,106 L-102,118 L-101,118 L-101,107 L-105,101 Z M-23,98 Z M-156,105 L-163,111 L-162,113 L-155,107 L-152,105 Z M-148,106 Z M-164,113 Z M-165,114 Z M-166,115 Z M-103,118 L-102,120 Z M-172,121 Z M-173,122 Z M-174,123 Z M-175,124 Z M-176,125 Z M-177,127 Z M-86,128 Z M-84,129 Z "
      transform="translate(194,14)" fill="currentColor" />
    <path
      d="M0,0 L14,0 L25,4 L34,10 L39,15 L46,21 L55,20 L65,16 L70,16 L70,18 L59,25 L50,31 L45,41 L40,51 L34,58 L28,61 L28,58 L33,53 L41,32 L39,28 L27,14 L16,8 L12,7 L2,7 L-2,9 L-3,15 L2,21 L12,28 L15,31 L15,38 L10,43 L2,47 L-2,50 L-13,50 L-16,50 L-20,55 L-22,55 L-21,49 L-18,44 L-14,42 L1,41 L9,37 L8,32 L-2,25 L-9,19 L-11,12 L-8,5 L-3,1 Z "
      transform="translate(29,50)" fill="currentColor" />
  </symbol>

  <symbol id="prometheus" viewBox="0 0 128 128">
    <path
      d="M63.66 2.477c33.477.007 60.957 27.296 60.914 60.5-.043 33.703-27.41 60.617-61.613 60.593-33.441-.023-60.477-27.343-60.453-61.086C2.53 29.488 30.066 2.47 63.66 2.477z"
      fill="#e75225" />

    <path
      d="M45.156 23.727c.766 3.777.024 7.3-1.113 10.765-.785 2.399-1.871 4.711-2.52 7.145-1.07 4.008-2.28 8.039-2.726 12.136-.64 5.895 1.676 11.086 5.64 16.25l-18.222-3.835c.031.574 0 .792.062.976 1.727 5.074 4.766 9.348 8.172 13.379.36.426 1.18.644 1.79.644 18.167.036 36.335.032 54.503.008.563 0 1.317-.105 1.66-.468 3.895-4.094 6.871-8.758 8.735-14.63l-19.29 3.778c1.274-2.496 2.723-4.688 3.56-7.098 2.855-8.242 1.671-16.21-2.427-23.726-3.289-6.031-6.324-12.035-4.683-19.305-3.473 3.434-4.809 7.8-5.656 12.3-.832 4.434-1.325 8.93-1.97 13.43-.093-.136-.21-.238-.23-.355a13.317 13.317 0 01-.168-1.422c-.394-7.367-1.832-14.465-4.87-21.246-1.786-3.988-3.758-8.07-1.915-12.832-1.246.66-2.375 1.313-3.183 2.246-2.41 2.785-3.407 6.13-3.664 9.793-.22 3.13-.52 6.274-1.102 9.352-.61 3.234-1.574 6.402-3.75 9.375-.875-6.348-.973-12.63-6.633-16.66zM92 86.75H35.016v9.898H92zm-45.684 15.016c-.046 8.242 8.348 14.382 18.723 13.937 8.602-.371 16.211-7.137 15.559-13.937z"
      fill="#ffffff" />
  </symbol>

  <symbol id="express" viewBox="0 0 32 32">
    <path fill="currentColor"
      d="M32 24.795c-1.164.296-1.884.013-2.53-.957l-4.594-6.356-.664-.88-5.365 7.257c-.613.873-1.256 1.253-2.4.944l6.87-9.222-6.396-8.33c1.1-.214 1.86-.105 2.535.88l4.765 6.435 4.8-6.4c.615-.873 1.276-1.205 2.38-.883l-2.48 3.288-3.36 4.375c-.4.5-.345.842.023 1.325L32 24.795zM.008 15.427l.562-2.764C2.1 7.193 8.37 4.92 12.694 8.3c2.527 1.988 3.155 4.8 3.03 7.95H1.48c-.214 5.67 3.867 9.092 9.07 7.346 1.825-.613 2.9-2.042 3.438-3.83.273-.896.725-1.036 1.567-.78-.43 2.236-1.4 4.104-3.45 5.273-3.063 1.75-7.435 1.184-9.735-1.248C1 21.6.434 19.812.18 17.9c-.04-.316-.12-.617-.18-.92q.008-.776.008-1.552zm1.498-.38h12.872c-.084-4.1-2.637-7.012-6.126-7.037-3.83-.03-6.58 2.813-6.746 7.037z" />
  </symbol>

  <symbol id="docker" viewBox="0 0 16 16" fill="none">
    <g strokeWidth="0"></g>
    <g strokeLinecap="round" strokeLinejoin="round"></g>
    <g>
      <path fill="#2396ED"
        d="M12.342 4.536l.15-.227.262.159.116.083c.28.216.869.768.996 1.684.223-.04.448-.06.673-.06.534 0 .893.124 1.097.227l.105.057.068.045.191.156-.066.2a2.044 2.044 0 01-.47.73c-.29.299-.8.652-1.609.698l-.178.005h-.148c-.37.977-.867 2.078-1.702 3.066a7.081 7.081 0 01-1.74 1.488 7.941 7.941 0 01-2.549.968c-.644.125-1.298.187-1.953.185-1.45 0-2.73-.288-3.517-.792-.703-.449-1.243-1.182-1.606-2.177a8.25 8.25 0 01-.461-2.83.516.516 0 01.432-.516l.068-.005h10.54l.092-.007.149-.016c.256-.034.646-.11.92-.27-.328-.543-.421-1.178-.268-1.854a3.3 3.3 0 01.3-.81l.108-.187zM2.89 5.784l.04.007a.127.127 0 01.077.082l.006.04v1.315l-.006.041a.127.127 0 01-.078.082l-.039.006H1.478a.124.124 0 01-.117-.088l-.007-.04V5.912l.007-.04a.127.127 0 01.078-.083l.039-.006H2.89zm1.947 0l.039.007a.127.127 0 01.078.082l.006.04v1.315l-.007.041a.127.127 0 01-.078.082l-.039.006H3.424a.125.125 0 01-.117-.088L3.3 7.23V5.913a.13.13 0 01.085-.123l.039-.007h1.413zm1.976 0l.039.007a.127.127 0 01.077.082l.007.04v1.315l-.007.041a.127.127 0 01-.078.082l-.039.006H5.4a.124.124 0 01-.117-.088l-.006-.04V5.912l.006-.04a.127.127 0 01.078-.083l.039-.006h1.413zm1.952 0l.039.007a.127.127 0 01.078.082l.007.04v1.315a.13.13 0 01-.085.123l-.04.006H7.353a.124.124 0 01-.117-.088l-.006-.04V5.912l.006-.04a.127.127 0 01.078-.083l.04-.006h1.412zm1.97 0l.039.007a.127.127 0 01.078.082l.006.04v1.315a.13.13 0 01-.085.123l-.039.006H9.322a.124.124 0 01-.117-.088l-.006-.04V5.912l.006-.04a.127.127 0 01.078-.083l.04-.006h1.411zM4.835 3.892l.04.007a.127.127 0 01.077.081l.007.041v1.315a.13.13 0 01-.085.123l-.039.007H3.424a.125.125 0 01-.117-.09l-.007-.04V4.021a.13.13 0 01.085-.122l.039-.007h1.412zm1.976 0l.04.007a.127.127 0 01.077.081l.007.041v1.315a.13.13 0 01-.085.123l-.039.007H5.4a.125.125 0 01-.117-.09l-.006-.04V4.021l.006-.04a.127.127 0 01.078-.082l.039-.007h1.412zm1.953 0c.054 0 .1.037.117.088l.007.041v1.315a.13.13 0 01-.085.123l-.04.007H7.353a.125.125 0 01-.117-.09l-.006-.04V4.021l.006-.04a.127.127 0 01.078-.082l.04-.007h1.412zm0-1.892c.054 0 .1.037.117.088l.007.04v1.316a.13.13 0 01-.085.123l-.04.006H7.353a.124.124 0 01-.117-.088l-.006-.04V2.128l.006-.04a.127.127 0 01.078-.082L7.353 2h1.412z">
      </path>
    </g>
  </symbol>

  <symbol id="linux" viewBox="0 0 16 16" fill="none">
    <g strokeWidth="0"></g>
    <g strokeLinecap="round" strokeLinejoin="round"></g>
    <g>
      <path fill="#202020"
        d="M13.338 12.033c-.1-.112-.146-.319-.197-.54-.05-.22-.107-.457-.288-.61v-.001a.756.756 0 00-.223-.134c.252-.745.153-1.487-.1-2.157-.312-.823-.855-1.54-1.27-2.03-.464-.586-.918-1.142-.91-1.963.014-1.254.138-3.579-2.068-3.582-.09 0-.183.004-.28.012-2.466.198-1.812 2.803-1.849 3.675-.045.638-.174 1.14-.613 1.764-.515.613-1.24 1.604-1.584 2.637-.162.487-.24.984-.168 1.454-.023.02-.044.041-.064.063-.151.161-.263.357-.388.489-.116.116-.282.16-.464.225-.183.066-.383.162-.504.395v.001a.702.702 0 00-.077.339c0 .108.016.217.032.322.034.22.068.427.023.567-.144.395-.163.667-.061.865.102.199.31.286.547.335.473.1 1.114.075 1.619.342l.043-.082-.043.082c.54.283 1.089.383 1.526.284a.99.99 0 00.706-.552c.342-.002.717-.146 1.318-.18.408-.032.918.145 1.503.113a.806.806 0 00.068.183l.001.001c.227.455.65.662 1.1.627.45-.036.928-.301 1.315-.762l-.07-.06.07.06c.37-.448.982-.633 1.388-.878.203-.123.368-.276.38-.499.013-.222-.118-.471-.418-.805z">
      </path>
      <path fill="#F8BF11"
        d="M13.571 12.828c-.007.137-.107.24-.29.35-.368.222-1.019.414-1.434.918-.362.43-.802.665-1.19.696-.387.03-.721-.13-.919-.526v-.002c-.123-.233-.072-.6.031-.987s.251-.785.271-1.108v-.001c.02-.415.044-.776.114-1.055.07-.28.179-.468.373-.575a.876.876 0 01.027-.014c.022.359.2.725.514.804.343.09.838-.204 1.047-.445l.122-.004c.184-.005.337.006.495.143v.001c.121.102.179.296.229.512.05.217.09.453.239.621.287.32.38.534.371.672zM6.592 13.843v.003c-.034.435-.28.672-.656.758-.377.086-.888 0-1.398-.266-.565-.3-1.237-.27-1.667-.36-.216-.045-.357-.113-.421-.238-.064-.126-.066-.345.071-.72v-.001l.001-.002c.068-.209.018-.438-.015-.653-.033-.214-.049-.41.024-.546l.001-.001c.094-.181.232-.246.403-.307.17-.062.373-.11.533-.27l.001-.001h.001c.148-.157.26-.353.39-.492.11-.117.22-.195.385-.196h.005a.61.61 0 01.093.008c.22.033.411.187.596.437l.533.971v.001c.142.296.441.622.695.954.254.333.45.666.425.921z">
      </path>
      <path fill="#D6A312"
        d="M9.25 4.788c-.043-.084-.13-.164-.28-.225-.31-.133-.444-.142-.617-.254-.28-.181-.513-.244-.706-.244a.834.834 0 00-.272.047c-.236.08-.392.25-.49.342-.02.019-.044.035-.104.08-.06.043-.15.11-.28.208-.117.086-.154.2-.114.332.04.132.167.285.4.417h.001c.145.085.244.2.358.291a.801.801 0 00.189.117c.072.031.156.052.26.058.248.015.43-.06.59-.151.16-.092.296-.204.452-.255h.001c.32-.1.548-.301.62-.493a.324.324 0 00-.008-.27z">
      </path>
      <path fill="#202020"
        d="M8.438 5.26c-.255.133-.552.294-.869.294-.316 0-.566-.146-.745-.289-.09-.07-.163-.142-.218-.193-.096-.075-.084-.181-.045-.178.066.008.076.095.117.134.056.052.126.12.211.187.17.135.397.266.68.266.284 0 .614-.166.816-.28.115-.064.26-.179.379-.266.09-.067.087-.147.162-.138.075.009.02.089-.085.18-.105.092-.27.214-.403.283z">
      </path>
      <path fill="#ffffff"
        d="M12.337 10.694a1.724 1.724 0 00-.104 0h-.01c.088-.277-.106-.48-.621-.713-.534-.235-.96-.212-1.032.265-.005.025-.009.05-.011.076a.801.801 0 00-.12.054c-.252.137-.389.386-.465.692-.076.305-.098.674-.119 1.09-.013.208-.099.49-.186.79-.875.624-2.09.894-3.122.19-.07-.11-.15-.22-.233-.328a13.85 13.85 0 00-.16-.205.65.65 0 00.268-.05.34.34 0 00.186-.192c.063-.17 0-.408-.202-.68-.201-.273-.542-.58-1.043-.888-.368-.23-.574-.51-.67-.814-.097-.305-.084-.635-.01-.96.143-.625.51-1.233.743-1.614.063-.046.023.086-.236.567-.232.44-.667 1.455-.072 2.248.016-.564.15-1.14.377-1.677.329-.747 1.018-2.041 1.072-3.073.029.02.125.086.169.11.126.075.221.184.344.283a.85.85 0 00.575.2c.24 0 .427-.079.582-.168.17-.096.304-.204.433-.245.27-.085.486-.235.608-.41.21.83.7 2.027 1.014 2.611.167.31.5.969.643 1.762.091-.002.191.01.299.038.375-.973-.319-2.022-.636-2.314-.128-.124-.135-.18-.07-.177.343.304.795.917.96 1.608.075.315.09.646.01.973.04.017.08.034.12.054.603.293.826.548.719.897z">
      </path>
      <path fill="#E6E6E6"
        d="M8.04 8.062c-.556.002-1.099.251-1.558.716-.46.464-.814 1.122-1.018 1.888l.061.038v.004c.47.298.805.598 1.012.878.219.296.316.584.223.834a.513.513 0 01-.27.283l-.041.015c.074.097.146.197.213.3.944.628 2.042.396 2.867-.172.08-.278.153-.536.163-.698.021-.415.042-.792.124-1.12.082-.33.242-.63.544-.795.017-.01.034-.015.051-.023a.756.756 0 01.022-.094c-.242-.622-.591-1.14-1.01-1.5-.42-.36-.897-.551-1.382-.554zm2.37 2.155l-.002.005v-.002l.001-.004z">
      </path>
      <path fill="#ffffff"
        d="M9.278 3.833a1.05 1.05 0 01-.215.656 4.119 4.119 0 00-.218-.09l-.127-.045c.029-.035.085-.075.107-.127a.669.669 0 00.05-.243l.001-.01a.673.673 0 00-.035-.236.434.434 0 00-.108-.184.223.223 0 00-.156-.07H8.57a.228.228 0 00-.151.06.434.434 0 00-.122.175.676.676 0 00-.05.243v.01a.718.718 0 00.009.14 1.773 1.773 0 00-.354-.12 1.196 1.196 0 01-.01-.133v-.013a1.035 1.035 0 01.088-.447.793.793 0 01.25-.328.554.554 0 01.346-.123h.006c.125 0 .232.036.342.116a.78.78 0 01.257.324c.063.138.094.273.097.433l.001.012zM7.388 3.997a1.05 1.05 0 00-.277.125.623.623 0 00.002-.15v-.008a.651.651 0 00-.048-.192.37.37 0 00-.096-.141.158.158 0 00-.119-.045c-.042.004-.077.024-.11.065a.372.372 0 00-.07.156.626.626 0 00-.013.205v.008a.634.634 0 00.048.193.367.367 0 00.116.156l-.102.08-.078.056a.706.706 0 01-.16-.24c-.053-.12-.082-.24-.09-.381v-.001a1.071 1.071 0 01.045-.39.668.668 0 01.167-.292.359.359 0 01.264-.118c.084 0 .158.028.235.09a.68.68 0 01.199.271c.053.12.08.24.089.382v.001c.003.06.003.115-.002.17z">
      </path>
      <path fill="#202020"
        d="M7.806 4.335c.01.034.065.029.097.045.027.014.05.045.08.046.03.001.076-.01.08-.04.005-.038-.052-.063-.088-.077-.047-.019-.107-.028-.151-.003-.01.005-.021.018-.018.03zM7.484 4.335c-.01.034-.065.029-.096.045-.028.014-.05.045-.081.046-.03.001-.076-.01-.08-.04-.005-.038.052-.063.088-.077.047-.019.108-.028.152-.003.01.005.02.018.017.03z">
      </path>
    </g>
  </symbol>

  <symbol id="astro" viewBox="0 0 150 150">
    <linearGradient id="astro-grad" x1="75.5" y1="113" x2="75.5" y2="143.15" gradientUnits="userSpaceOnUse">
      <stop offset="0" stop-color="#ee46e0" />
      <stop offset="1" stop-color="#da3737" />
    </linearGradient>
    <path fill="url(#astro-grad)"
      d="M57.53,128.19c-5.86-5.34-7.57-16.57-5.13-24.7,4.23,5.13,10.1,6.75,16.17,7.67,10.41,1.56,21.21,.76,30.3-5.19,2.64,7.89-1.02,16.49-7.6,21.14-8.36,5.63-14.92,8.86-10.92,20.26-6.02-2.64-9.6-8.59-9.64-15-.02-1.6-.02-3.21-.24-4.79-.53-3.84-2.33-5.56-5.74-5.66-3.89-.16-6.6,2.57-7.21,6.27h0Z" />
    <path fill="currentColor"
      d="M24.1,102.13s17.35-8.43,34.74-8.43l13.12-40.49c.49-1.96,1.92-3.29,3.54-3.29s3.05,1.33,3.54,3.29l13.12,40.49c20.6,0,34.74,8.43,34.74,8.43,0,0-29.47-80.07-29.52-80.23-.85-2.37-2.27-3.89-4.2-3.89H57.82c-1.92,0-3.29,1.52-4.2,3.89-.06,.16-29.53,80.23-29.53,80.23Z" />
  </symbol>

  <symbol id="redis" viewBox="0 0 256 256" fill="#000000">
    <g stroke-width="0"></g>
    <g stroke-linecap="round" stroke-linejoin="round"></g>
    <g>
      <path
        d="M245.97 168.943c-13.662 7.121-84.434 36.22-99.501 44.075-15.067 7.856-23.437 7.78-35.34 2.09-11.902-5.69-87.216-36.112-100.783-42.597C3.566 169.271 0 166.535 0 163.951v-25.876s98.05-21.345 113.879-27.024c15.828-5.679 21.32-5.884 34.79-.95 13.472 4.936 94.018 19.468 107.331 24.344l-.006 25.51c.002 2.558-3.07 5.364-10.024 8.988"
        fill="#912626"></path>
      <path
        d="M245.965 143.22c-13.661 7.118-84.431 36.218-99.498 44.072-15.066 7.857-23.436 7.78-35.338 2.09-11.903-5.686-87.214-36.113-100.78-42.594-13.566-6.485-13.85-10.948-.524-16.166 13.326-5.22 88.224-34.605 104.055-40.284 15.828-5.677 21.319-5.884 34.789-.948 13.471 4.934 83.819 32.935 97.13 37.81 13.316 4.881 13.827 8.9.166 16.02"
        fill="#C6302B"></path>
      <path
        d="M245.97 127.074c-13.662 7.122-84.434 36.22-99.501 44.078-15.067 7.853-23.437 7.777-35.34 2.087-11.903-5.687-87.216-36.112-100.783-42.597C3.566 127.402 0 124.67 0 122.085V96.206s98.05-21.344 113.879-27.023c15.828-5.679 21.32-5.885 34.79-.95C162.142 73.168 242.688 87.697 256 92.574l-.006 25.513c.002 2.557-3.07 5.363-10.024 8.987"
        fill="#912626"></path>
      <path
        d="M245.965 101.351c-13.661 7.12-84.431 36.218-99.498 44.075-15.066 7.854-23.436 7.777-35.338 2.087-11.903-5.686-87.214-36.112-100.78-42.594-13.566-6.483-13.85-10.947-.524-16.167C23.151 83.535 98.05 54.148 113.88 48.47c15.828-5.678 21.319-5.884 34.789-.949 13.471 4.934 83.819 32.933 97.13 37.81 13.316 4.88 13.827 8.9.166 16.02"
        fill="#C6302B"></path>
      <path
        d="M245.97 83.653c-13.662 7.12-84.434 36.22-99.501 44.078-15.067 7.854-23.437 7.777-35.34 2.087-11.903-5.687-87.216-36.113-100.783-42.595C3.566 83.98 0 81.247 0 78.665v-25.88s98.05-21.343 113.879-27.021c15.828-5.68 21.32-5.884 34.79-.95C162.142 29.749 242.688 44.278 256 49.155l-.006 25.512c.002 2.555-3.07 5.361-10.024 8.986"
        fill="#912626"></path>
      <path
        d="M245.965 57.93c-13.661 7.12-84.431 36.22-99.498 44.074-15.066 7.854-23.436 7.777-35.338 2.09C99.227 98.404 23.915 67.98 10.35 61.497-3.217 55.015-3.5 50.55 9.825 45.331 23.151 40.113 98.05 10.73 113.88 5.05c15.828-5.679 21.319-5.883 34.789-.948 13.471 4.935 83.819 32.934 97.13 37.811 13.316 4.876 13.827 8.897.166 16.017"
        fill="#C6302B"></path>
      <path
        d="M159.283 32.757l-22.01 2.285-4.927 11.856-7.958-13.23-25.415-2.284 18.964-6.839-5.69-10.498 17.755 6.944 16.738-5.48-4.524 10.855 17.067 6.391M131.032 90.275L89.955 73.238l58.86-9.035-17.783 26.072M74.082 39.347c17.375 0 31.46 5.46 31.46 12.194 0 6.736-14.085 12.195-31.46 12.195s-31.46-5.46-31.46-12.195c0-6.734 14.085-12.194 31.46-12.194"
        fill="#FFF"></path>
      <path d="M185.295 35.998l34.836 13.766-34.806 13.753-.03-27.52" fill="#621B1C"></path>
      <path d="M146.755 51.243l38.54-15.245.03 27.519-3.779 1.478-34.791-13.752" fill="#9A2928"></path>
    </g>
  </symbol>
</svg>