<svg xmlns="http://www.w3.org/2000/svg">
    <symbol id="go" viewBox="0 0 256 256">
        <g fill="none">
            <rect width="256" height="256" fill="#00B4E0" rx="60" />
            <path fill="#fff"
                d="M40.5 113.234c-.4 0-.5-.2-.3-.5l2.1-2.7c.2-.3.7-.5 1.1-.5h35.7c.4 0 .5.3.3.6l-1.7 2.6c-.2.3-.7.6-1 .6zm-15.1 9.2c-.4 0-.5-.2-.3-.5l2.1-2.7c.2-.3.7-.5 1.1-.5h45.6c.4 0 .6.3.5.6l-.8 2.4c-.1.4-.5.6-.9.6zm24.2 9.2c-.4 0-.5-.3-.3-.6l1.4-2.5c.2-.3.6-.6 1-.6h20c.4 0 .6.3.6.7l-.2 2.4c0 .4-.4.7-.7.7zm103.8-20.2c-6.3 1.6-10.6 2.8-16.8 4.4c-1.5.4-1.6.5-2.9-1c-1.5-1.7-2.6-2.8-4.7-3.8c-6.3-3.1-12.4-2.2-18.1 1.5c-6.8 4.4-10.3 10.9-10.2 19c.1 8 5.6 14.6 13.5 15.7c6.8.9 12.5-1.5 17-6.6c.9-1.1 1.7-2.3 2.7-3.7h-19.3c-2.1 0-2.6-1.3-1.9-3c1.3-3.1 3.7-8.3 5.1-10.9c.3-.6 1-1.6 2.5-1.6h36.4c-.2 2.7-.2 5.4-.6 8.1c-1.1 7.2-3.8 13.8-8.2 19.6c-7.2 9.5-16.6 15.4-28.5 17c-9.8 1.3-18.9-.6-26.9-6.6c-7.4-5.6-11.6-13-12.7-22.2c-1.3-10.9 1.9-20.7 8.5-29.3c7.1-9.3 16.5-15.2 28-17.3c9.4-1.7 18.4-.6 26.5 4.9c5.3 3.5 9.1 8.3 11.6 14.1c.6.9.2 1.4-1 1.7" />
            <path fill="#fff"
                d="M186.5 166.734c-9.1-.2-17.4-2.8-24.4-8.8c-5.9-5.1-9.6-11.6-10.8-19.3c-1.8-11.3 1.3-21.3 8.1-30.2c7.3-9.6 16.1-14.6 28-16.7c10.2-1.8 19.8-.8 28.5 5.1c7.9 5.4 12.8 12.7 14.1 22.3c1.7 13.5-2.2 24.5-11.5 33.9c-6.6 6.7-14.7 10.9-24 12.8c-2.7.5-5.4.6-8 .9m23.8-40.4c-.1-1.3-.1-2.3-.3-3.3c-1.8-9.9-10.9-15.5-20.4-13.3c-9.3 2.1-15.3 8-17.5 17.4c-1.8 7.8 2 15.7 9.2 18.9c5.5 2.4 11 2.1 16.3-.6c7.9-4.1 12.2-10.5 12.7-19.1" />
        </g>
    </symbol>

    <symbol id="gin" viewBox="60 10 285 400">
        <path
            d="M0,0 L6,1 L13,9 L13,11 L15,11 L26,28 L32,41 L36,54 L36,61 L41,63 L47,67 L47,69 L49,69 L49,71 L51,71 L56,80 L56,97 L52,127 L48,157 L45,182 L40,217 L36,253 L33,272 L28,312 L23,352 L20,362 L13,370 L11,370 L11,372 L-5,380 L-21,385 L-40,389 L-57,391 L-75,392 L-97,392 L-123,390 L-143,387 L-165,381 L-181,373 L-183,372 L-183,370 L-187,368 L-192,362 L-195,352 L-201,302 L-206,267 L-211,227 L-216,187 L-221,152 L-227,103 L-228,98 L-228,80 L-223,71 L-221,71 L-221,69 L-219,69 L-219,67 L-213,63 L-211,63 L-211,61 L-191,52 L-179,48 L-157,43 L-131,39 L-103,37 L-69,37 L-42,39 L-35,41 L-33,37 L-22,24 L-11,10 L-3,1 Z "
            transform="translate(289,11)" style="fill: #5FDCEA;" />
        <path
            d="M0,0 L6,1 L13,9 L13,11 L15,11 L26,28 L32,41 L36,54 L36,61 L41,63 L47,67 L47,69 L49,69 L49,71 L51,71 L56,80 L56,97 L52,127 L48,157 L45,182 L40,217 L36,253 L33,272 L28,312 L23,352 L20,362 L13,370 L11,370 L11,372 L-5,380 L-21,385 L-40,389 L-57,391 L-75,392 L-97,392 L-123,390 L-143,387 L-165,381 L-181,373 L-183,372 L-183,370 L-187,368 L-192,362 L-195,352 L-201,302 L-206,267 L-211,227 L-216,187 L-221,152 L-227,103 L-228,98 L-228,80 L-223,71 L-221,71 L-221,69 L-219,69 L-219,67 L-213,63 L-211,63 L-211,61 L-191,52 L-179,48 L-157,43 L-131,39 L-103,37 L-69,37 L-42,39 L-35,41 L-33,37 L-22,24 L-11,10 L-3,1 Z M-211,112 L-211,123 L-206,158 L-201,200 L-198,220 L-195,246 L-193,258 L-189,292 L-186,311 L-182,342 L-181,354 L-177,359 L-165,366 L-151,371 L-126,376 L-105,378 L-68,378 L-42,375 L-21,371 L-3,364 L7,357 L9,350 L13,319 L15,304 L20,268 L23,242 L25,230 L31,182 L37,136 L39,120 L39,112 L23,120 L12,134 L7,139 L7,141 L3,143 L1,145 L-8,145 L4,134 L12,125 L10,124 L-6,128 L-20,131 L-53,135 L-68,136 L-105,137 L-106,138 L-114,139 L-114,136 L-154,131 L-176,126 L-194,120 Z "
            transform="translate(289,11)" style="fill: #0E1010;" />
        <path
            d="M0,0 L45,0 L64,2 L58,10 L47,24 L35,38 L26,49 L12,66 L7,72 L-12,72 L-36,69 L-61,64 L-80,58 L-96,50 L-103,44 L-106,39 L-105,32 L-99,25 L-85,17 L-69,11 L-38,4 L-13,1 Z "
            transform="translate(180,62)" style="fill: #DEF7FA;" />
        <path
            d="M0,0 L6,5 L16,20 L24,36 L28,49 L29,55 L29,75 L27,86 L23,97 L13,102 L-7,108 L-30,112 L-42,114 L-70,116 L-95,116 L-91,110 L-80,97 L-69,83 L-56,68 L-48,58 L-39,47 L-25,30 L-14,17 L-6,7 Z "
            transform="translate(290,19)" style="fill: #F8E593;" />
        <path
            d="M0,0 L2,1 L-7,11 L-14,18 L-18,21 L-10,22 L-15,27 L-25,33 L-38,39 L-54,42 L-74,42 L-91,38 L-109,30 L-121,22 L-124,19 L-124,15 L-116,14 L-115,13 L-78,12 L-52,10 L-24,6 L-6,2 Z "
            transform="translate(299,135)" style="fill: #7ECFC7;" />
        <path
            d="M0,0 L13,0 L21,4 L26,8 L32,20 L32,30 L28,39 L23,45 L14,50 L-1,50 L-10,45 L-16,38 L-19,31 L-19,20 L-15,11 L-10,5 Z "
            transform="translate(249,240)" style="fill: #F9F9F9;" />
        <path
            d="M0,0 L11,0 L21,4 L29,13 L31,18 L31,33 L25,43 L16,49 L13,50 L-1,50 L-9,46 L-17,37 L-19,32 L-19,20 L-15,10 L-7,3 Z "
            transform="translate(152,248)" style="fill: #F9FAF9;" />
        <path d="M0,0 L27,0 L21,8 L12,19 L7,25 L-12,25 L-36,22 L-61,17 L-70,14 L-70,12 L-47,6 L-37,4 Z "
            transform="translate(180,109)" style="fill: #52C8DA;" />
        <path
            d="M0,0 L1,0 L3,16 L-1,30 L-6,38 L-10,44 L-15,40 L-15,38 L-19,37 L-19,35 L-24,33 L-25,30 L-29,28 L-37,22 L-39,21 L-39,18 L-43,17 L-43,15 L-48,13 L-48,10 L-31,7 L-19,4 Z "
            transform="translate(300,79)" style="fill: #FDDE52;" />
        <path
            d="M0,0 L10,0 L16,3 L19,6 L18,13 L12,17 L7,17 L7,24 L22,20 L26,18 L30,18 L29,23 L19,27 L14,42 L10,46 L-1,46 L-4,43 L-6,37 L-6,27 L-12,25 L-23,17 L-26,14 L-25,9 L-21,11 L-14,17 L-4,22 L2,23 L2,16 L-4,15 L-8,10 L-7,4 L-3,1 Z "
            transform="translate(209,291)" style="fill: #050D10;" />
        <path
            d="M0,0 L6,5 L16,20 L24,36 L28,49 L29,55 L29,75 L27,86 L23,97 L13,102 L10,101 L15,91 L18,82 L19,76 L19,56 L15,40 L7,24 L6,20 L4,20 L-4,9 L-4,4 Z "
            transform="translate(290,19)" style="fill: #E7BB65;" />
        <path
            d="M0,0 L2,1 L-7,11 L-14,18 L-19,22 L-26,22 L-33,21 L-56,20 L-78,18 L-109,17 L-116,16 L-115,13 L-78,12 L-52,10 L-24,6 L-6,2 Z "
            transform="translate(299,135)" style="fill: #D6DFA1;" />
        <path
            d="M0,0 L10,0 L22,5 L28,10 L33,18 L35,24 L35,37 L29,49 L21,56 L16,59 L11,60 L-2,60 L-14,54 L-20,47 L-24,39 L-25,36 L-25,24 L-19,12 L-12,5 L-4,1 Z M-1,5 L-11,10 L-17,17 L-20,25 L-20,37 L-16,45 L-9,52 L-2,55 L12,55 L20,51 L25,47 L30,38 L30,23 L26,15 L18,8 L10,5 Z "
            transform="translate(153,243)" style="fill: #0A1215;" />
        <path
            d="M0,0 L7,0 L7,2 L12,4 L26,12 L37,16 L50,19 L74,19 L88,15 L100,9 L103,7 L114,7 L109,12 L99,18 L86,24 L70,27 L50,27 L33,23 L15,15 L3,7 L0,4 Z "
            transform="translate(175,150)" style="fill: #3E9BA8;" />
        <path
            d="M0,0 L9,0 L20,4 L29,12 L33,20 L34,23 L34,36 L31,45 L22,55 L14,59 L10,60 L-2,60 L-12,56 L-18,51 L-23,43 L-25,37 L-25,22 L-20,12 L-13,5 L-5,1 Z M-2,5 L-12,10 L-18,17 L-21,25 L-21,36 L-16,46 L-9,52 L-3,55 L12,55 L22,49 L27,43 L30,35 L30,25 L24,13 L16,7 L11,5 Z "
            transform="translate(251,235)" style="fill: #070F12;" />
        <path d="M0,0 L3,0 L3,2 L7,3 L12,8 L17,13 L21,17 L21,19 L25,21 L29,24 L28,28 L13,31 L-2,32 L-3,25 L-1,1 Z "
            transform="translate(244,101)" style="fill: #FADC54;" />
        <path d="M0,0 L6,0 L11,3 L13,7 L13,13 L8,19 L6,20 L0,20 L-6,15 L-6,5 Z " transform="translate(249,261)"
            style="fill: #0B0B0B;" />
        <path d="M0,0 L6,0 L11,3 L13,6 L13,14 L8,19 L-1,19 L-6,14 L-6,5 Z " transform="translate(153,268)"
            style="fill: #080808;" />
        <path d="M0,0 L20,0 L21,4 L24,5 L24,7 L32,7 L32,8 L22,8 L0,6 L-31,5 L-38,4 L-37,1 Z "
            transform="translate(221,147)" style="fill: #D1E8BF;" />
        <path d="M0,0 L2,1 L-7,11 L-14,18 L-19,22 L-26,22 L-33,21 L-34,19 L-25,14 L-16,6 L-16,4 Z "
            transform="translate(299,135)" style="fill: #C7C284;" />
        <path d="M0,0 L13,0 L12,8 L10,12 L2,12 L0,7 Z " transform="translate(208,320)" style="fill: #E7E7E8;" />
        <path d="M0,0 L33,0 L34,4 L3,4 L-1,3 Z " transform="translate(184,148)" style="fill: #D2E9C8;" />
        <path d="M0,0 L4,2 L7,7 L6,14 L1,20 L-3,22 L-2,15 Z " transform="translate(325,89)" style="fill: #D1E4E6;" />
        <path d="M0,0 L12,6 L12,8 L4,14 L1,14 L0,11 Z " transform="translate(78,123)" style="fill: #BEEBF0;" />
        <path d="M0,0 L1,0 L1,8 L0,14 L-4,13 L-9,9 L-11,8 L-11,6 Z " transform="translate(327,123)"
            style="fill: #C2EFF3;" />


        <path d="M0,0 L9,0 L14,2 L14,3 L3,4 L-1,3 Z " transform="translate(184,148)" style="fill: #B9C999;" />
        <path d="M0,0 L8,0 L7,4 L-2,4 L-2,1 Z " transform="translate(221,147)" style="fill: #CFD27D;" />
        <path d="M0,0 L0,3 L-10,14 L-10,11 L-2,1 Z " transform="translate(315,129)" style="fill: #57B0BD;" />
        <path d="M0,0 L4,1 L4,5 L0,6 L-2,2 Z " transform="translate(157,272)" style="fill: #D6D6D6;" />
        <path d="M0,0 L4,2 L2,6 L-2,4 Z " transform="translate(253,265)" style="fill: #E4E4E4;" />
        <path d="M0,0 L9,1 L8,3 L0,3 Z " transform="translate(175,147)" style="fill: #154246;" />
        <path d="M0,0 L2,0 L0,4 L-4,8 L-6,7 Z " transform="translate(286,12)" style="fill: #747474;" />
    </symbol>
</svg>